<svg xmlns="http://www.w3.org/2000/svg" width="640" height="640"><path fill="#010000" d="M0 0h640v640H0z"/><path fill="#010101" d="m183.259 221.874 2.801-.008 3.114.007 3.28-.005c3.656-.004 7.313 0 10.97.003l7.828-.006q9.555-.005 19.109 0 7.762.003 15.523.001h2.228l4.479-.001q21.024-.004 42.049.006 18.06.005 36.12-.001a69484 69484 0 0 1 46.356-.004h2.218q7.757.002 15.514-.002 10.43-.004 20.86.005 3.841 0 7.682-.002 5.218-.002 10.436.006l3.114-.007 2.801.008h2.437C444 222 444 222 445 223c.098 2.643.13 5.26.12 7.903l.003 2.54c.002 2.83-.004 5.659-.01 8.489l.001 6.06q-.001 8.252-.013 16.505-.007 8.615-.008 17.229-.005 16.324-.021 32.65-.016 18.58-.022 37.16-.016 38.232-.05 76.464l3-1c11.59-.794 19.97-.214 29.312 7.25 6.179 5.76 9.373 13.619 9.805 22.031.007 1.907-.049 3.814-.117 5.719h4c.42 14.369-.724 28.503-2.081 42.802-.361 3.812-.708 7.625-1.054 11.438q-.335 3.633-.674 7.264l-.315 3.459-.303 3.16-.263 2.79C486 535 486 535 485 536c-3.07.1-6.116.136-9.186.13l-2.921.005q-4.806.004-9.612-.002-3.324 0-6.647.003-6.975.002-13.952-.006-8.964-.006-17.928.004-6.866.005-13.732 0-3.306 0-6.612.002-4.613.003-9.224-.007l-2.79.007c-6.282-.022-6.282-.022-7.396-1.136a118 118 0 0 1-.535-5.566l-.264-3.409-.264-3.588-.275-3.6q-.337-4.417-.662-8.837l-3.183.003q-38.28.033-76.56.049-18.512.007-37.023.023-16.13.015-32.257.02-8.546 0-17.091.01-8.034.01-16.067.008-2.958 0-5.915.006-4.02.007-8.04.001l-2.396.01c-5.354-.016-5.354-.016-6.468-1.13a72 72 0 0 1-.126-4.587l-.008-3.023.007-3.361-.005-3.54q-.004-4.884.001-9.77.003-5.26-.004-10.52-.005-10.312 0-20.624a27981 27981 0 0 0 0-23.993q-.004-22.692.006-45.384.005-19.492-.001-38.985a80942 80942 0 0 1-.004-50.033v-2.394q.002-8.373-.002-16.745-.004-10.195.003-20.392.005-5.206 0-10.414-.002-5.633.006-11.264l-.007-3.361.008-3.023v-2.63c.237-3.687 2.17-3.082 5.385-3.083"/><path fill="#9E9E9E" d="m183.259 221.874 2.801-.008 3.114.007 3.28-.005c3.656-.004 7.313 0 10.97.003l7.828-.006q9.555-.005 19.109 0 7.762.003 15.523.001h2.228l4.479-.001q21.024-.004 42.049.006 18.06.005 36.12-.001a69484 69484 0 0 1 46.356-.004h2.218q7.757.002 15.514-.002 10.43-.004 20.86.005 3.841 0 7.682-.002 5.218-.002 10.436.006l3.114-.007 2.801.008h2.437C444 222 444 222 445 223c.098 2.643.13 5.26.12 7.903l.003 2.54c.002 2.83-.004 5.659-.01 8.489l.001 6.06q-.001 8.252-.013 16.505-.007 8.615-.008 17.229-.005 16.324-.021 32.65-.016 18.58-.022 37.16-.016 38.232-.05 76.464l3-1c11.59-.794 19.97-.214 29.312 7.25 6.179 5.76 9.373 13.619 9.805 22.031.007 1.907-.049 3.814-.117 5.719h4c.42 14.369-.724 28.503-2.081 42.802-.361 3.812-.708 7.625-1.054 11.438q-.335 3.633-.674 7.264l-.315 3.459-.303 3.16-.263 2.79C486 535 486 535 485 536c-3.07.1-6.116.136-9.186.13l-2.921.005q-4.806.004-9.612-.002-3.324 0-6.647.003-6.975.002-13.952-.006-8.964-.006-17.928.004-6.866.005-13.732 0-3.306 0-6.612.002-4.613.003-9.224-.007l-2.79.007c-6.282-.022-6.282-.022-7.396-1.136a118 118 0 0 1-.535-5.566l-.264-3.409-.264-3.588-.275-3.6q-.337-4.417-.662-8.837l-3.183.003q-38.28.033-76.56.049-18.512.007-37.023.023-16.13.015-32.257.02-8.546 0-17.091.01-8.034.01-16.067.008-2.958 0-5.915.006-4.02.007-8.04.001l-2.396.01c-5.354-.016-5.354-.016-6.468-1.13a72 72 0 0 1-.126-4.587l-.008-3.023.007-3.361-.005-3.54q-.004-4.884.001-9.77.003-5.26-.004-10.52-.005-10.312 0-20.624a27981 27981 0 0 0 0-23.993q-.004-22.692.006-45.384.005-19.492-.001-38.985a80942 80942 0 0 1-.004-50.033v-2.394q.002-8.373-.002-16.745-.004-10.195.003-20.392.005-5.206 0-10.414-.002-5.633.006-11.264l-.007-3.361.008-3.023v-2.63c.237-3.687 2.17-3.082 5.385-3.083M183 273v232h199c0-10.518-.095-20.645-1-31.063l-.29-3.525q-.345-4.207-.71-8.412l2.407.094c2.641.201 2.641.201 4.077-1.598l1.266-2.059c5.596-8.051 12.627-12.624 22.25-14.437q2.404-.214 4.812-.375c4.593-.408 6.068-2.2 9.188-5.625 5.196-3.581 9.978-5.993 16-8V273z"/><path fill="#040404" d="m338 309 3.188 1.133c18.871 7.27 36.184 22.038 44.618 40.644 9.51 21.96 11.062 43.836 2.686 66.434-8.527 21.504-24.937 37.038-45.867 46.281-18.148 7.549-41.19 8.78-59.625 1.508-10.21-4.24-18.841-9.453-27-17l-2.355-2.078c-13.21-12.277-22.54-30.813-23.864-48.924-.965-26.954 4.51-46.955 22.559-67.685C273.782 306.515 308.662 298.21 338 309"/><path fill="#030303" d="M385 466h101c0 6.942-.074 13.692-.586 20.586l-.187 2.617q-.197 2.715-.399 5.43c-.202 2.729-.394 5.458-.586 8.187l-.39 5.328-.168 2.41c-.53 6.93-1.617 13.505-2.684 20.442h-92l-3-43-1-8z"/><path fill="#010101" d="m310.875 329.813 2.645-.038 2.597-.005 2.332-.013C321 330 321 330 328 332v110c-5.944 1.981-10.074 2.35-16.187 2.313l-2.844-.015c-6.711-.114-12.714-.704-18.969-3.298l-2.523-1.031c-14.11-6.425-22.834-17.14-29.664-30.778C257 407 257 407 257 403l2.108-.028c3.173-.054 6.345-.138 9.517-.222l3.316-.043c6.265-.19 10.33-.435 15.059-4.707 3.525-4.935 3.975-10.13 3-16-1.535-3.668-3.289-6.936-6.727-9.074-2.804-1.142-5.108-1.247-8.132-1.34l-3.38-.117-3.511-.094-3.559-.117q-4.346-.141-8.691-.258a865 865 0 0 1 1.824-5.207l1.026-2.929c1.776-4.423 4.273-8.09 7.15-11.864l1.555-2.09c10.568-13.172 26.923-19.085 43.32-19.098"/><path fill="#060606" d="M300 227h140v42H300z"/><path fill="#9E9E9E" d="M350.535 337.969C363.132 348.349 371.501 361.755 374 378c1.72 17.91-1.93 33.912-13.477 48.027-10.175 11.81-23.993 21.943-40.056 23.166-20.515.617-35.356-2.167-51.654-15.505L266 431v-2h-2a92 92 0 0 1-4.375-6.312l-1.222-1.92c-4.546-7.341-7.51-14.048-7.403-22.768l2.599-.028q4.785-.067 9.571-.18 2.07-.042 4.138-.063a424 424 0 0 0 5.958-.12l3.618-.063c3.678-.645 4.863-1.627 7.116-4.546 1.28-4.334 1.67-9.761 0-14-3.436-2.326-6.665-2.307-10.734-2.414l-3.926-.117-4.09-.094-4.137-.117q-5.056-.141-10.113-.258c-.223-13.94 7.838-24.742 17-34.625 22.47-21.791 58.104-22.194 82.535-3.406M279 339c-.675.43-1.35.859-2.047 1.3-10.237 7.044-18.116 18.588-20.953 30.7l2.216.044c3.324.075 6.648.171 9.971.269l3.487.068 3.369.107 3.094.08c4.84.73 7.261 2.635 10.176 6.495 2.333 4.532 2.595 8.96 1.687 13.937-2.004 4.76-4.15 8.012-9 10-2.657.319-2.657.319-5.64.414l-3.243.117-3.367.094-3.414.117q-4.168.141-8.336.258c1.72 12.305 9.453 22.64 18.93 30.398 11.214 7.836 22.027 10.78 35.507 10.79l2.815.037 2.744.005 2.474.013c3.177-.21 3.177-.21 8.53-2.243V332c-16.896-4.827-34.17-2.651-49 7"/><path fill="#0B0503" d="m613.776-.114 3.665.016 3.955.01 4.166.025q2.09.008 4.178.014Q634.87-.03 640 0q.141 16.324.207 32.65c.021 5.053.05 10.106.095 15.16q.063 7.313.078 14.627.01 2.792.043 5.584c.029 2.605.033 5.209.031 7.814l.044 2.337c-.028 3.55-.226 5.47-2.401 8.338C636 88 636 88 634 88l-.563 2.187c-1.97 3.857-4.835 5.55-8.437 7.813l2.125 1.562c4.153 3.522 8.13 7.202 9.875 12.438.39 4.755.46 7.078-1.688 11.375-3.41 3.87-5.76 4.459-10.812 5-4.116-.441-5.645-1.437-8.5-4.375-1.236-3.71-1.688-7.151-1-11 2.187-2.563 2.187-2.563 5-4 3.423.16 4.563.563 7 3 .37 2.883.42 4.39-1.25 6.812C624 120 624 120 620 120l1-5h3v-2l-6 2c-.357 3.209-.237 4.64 1.562 7.375 2.426 1.943 2.426 1.943 5.875 1.625 3.941-1.106 5.913-1.868 8.563-5 .649-4.543.685-6.743-1.5-10.75-5.583-5.025-12.339-6.94-19.5-8.688-5.696-1.477-10.547-2.92-15.344-6.453-1.877-1.257-3.626-1.825-5.781-2.484-4.561-1.574-7.354-4.568-9.875-8.625-1.145-3.25-1.103-6.326-1.063-9.75l.028-2.984L581 67h1l.297 2.195C583.21 75.1 584.04 79.441 588 84l3 1-1.5-3c-3.61-9.663-2.286-21.624 1.5-31l-1.758.621C577.394 55.707 568.487 56.371 557 51c1.4 3.383 2.827 5.146 6 7 3.033.786 3.033.786 6.25 1.187l3.266.481L575 60v2c-7.994.28-14.35-.52-20.441-6.11-2.33-2.824-3.405-5.84-4.602-9.273-.94-2.572-2.088-4.839-3.395-7.242-2.585-5.004-4.179-10.171-5.687-15.579-1.587-5.5-3.717-10.49-7.688-14.734-3.296-1.6-5.574-1.569-9.187-1.062-2.93 1.995-4.645 3.428-5.445 6.973-.198 3.52.207 5.68 2.195 8.59 2.105 1.602 2.105 1.602 4.375 1.562 2.855-1.713 3.08-4.012 3.875-7.125h-2l-1 4h-4c.75-4.75.75-4.75 3-7 5.455.455 5.455.455 8 3 .5 3.161.261 4.58-1.438 7.312C527.79 27.797 524.392 27.8 520 27c-2.87-1.794-4.491-2.983-6-6-.394-4.098-.234-6.514 1.562-10.25 3.02-3.407 5.026-4.593 9.438-5.75 6.549.07 10.723 2.874 15.469 7.148 1.637 1.98 2.133 3.34 2.531 5.852h2l.562-2.125c2.454-4.908 6.41-7.905 11.313-10.25C564.174 4.165 571.342 4.392 578 8c4.341 3.463 7.241 7.059 8.125 12.625.19 4.996-1.459 8.361-4.625 12.187-3.359 2.66-7.19 2.514-11.273 2.481-3.295-.434-4.992-1.918-7.227-4.293-1.42-2.84-1.315-4.855-1-8 1.687-2.375 1.687-2.375 4-4 2.625-.438 2.625-.438 5 0 2 3 2 3 1.812 5-.926 2.281-1.896 3.467-3.812 5h-2l2 3c3.312-.301 5.534-.685 8.312-2.563 2.77-4.001 2.93-7.973 2.47-12.664-.398-2.442-.398-2.442-1.782-5.773-2.11-1.629-2.11-1.629-5-2l-3.75-.875C564.182 7.598 560.23 9.304 556 12c-4.018 3.57-6.726 7.764-7.184 13.172-.118 4.25.039 7.074 2.184 10.828l2-4 4 1-1.063 3.687c-1.198 4.73-1.198 4.73.063 9.313 4.079 4.023 8.21 5.347 13.875 5.5 10.08-.495 17.188-2.984 24.125-10.5l1-2-3-1c2.076-.553 3.844-1 6-1l-2-6c-2.354-.688-2.354-.688-5-1-3.126 1.605-3.126 1.605-3.512 3.945L587 40l-2-1c-.326-4.162-.407-6.363 1.875-9.938C589 27 589 27 591 27l1-4 9 1v-2l-3-1 4-1 1 7h2c2.158-6.07 2.209-11.594 2-18-2.169.506-4 1-6 2l1-4c5.75-.125 5.75-.125 8 1l-.063-3.438c.08-4.522.08-4.522 3.839-4.676"/><path fill="#030303" d="M183 227h112v41H183z"/><path fill="#D5C6AE" d="M306 549c5.124 2.507 9.297 6.584 12.168 11.5 1.766 5.305 1.18 10.989.832 16.5l1.504-1.32q6.71-5.884 13.496-11.68c4.51 1.417 6.954 3.663 10.188 7.063 3.08 3.406 3.08 3.406 6.812 5.937l-1-2c-1.099-7.283.903-12.987 5-19 3.679-3.9 6.972-6.737 12.375-7.437 9.408.169 18.142 7.182 25.641 12.364 6.252 4.217 11.9 5.348 19.359 5.26l3.71-.019c2.806.162 2.806.162 3.915-1.168l-2-1c-.312-2.75-.312-2.75 0-6 2-2.437 2-2.437 5-4 3.61-.225 6.807.329 10 2.125 1.697 3.182 1.54 5.337 1 8.875-2.445 3.815-5.263 5.705-9.437 7.375-13.721 2.407-24.937-3.602-36.125-11a6333 6333 0 0 0-6.254-4.04l-2.733-1.794c-5.185-3.26-9.295-4.853-15.451-3.541-5.62 3.287-9.314 7.677-11 14-.214 3.683-.18 7.317 0 11l2.45-1.277 3.238-1.66 3.199-1.653c5.052-2.288 10.592-3.44 16.113-2.41a85 85 0 0 1 4.813 2.813c7.788 4.595 16.345 5.271 25.187 6.187l3.316.387c7.24.463 12.039-1.966 17.684-6.387 1.813-1.699 3.523-3.458 5.227-5.266 8.047-7.87 16.929-11.099 28.007-10.998l3.266.077 3.36.04q4.07.054 8.14.147l-.625-2.375L476 552l2-2c2.625.375 2.625.375 5 1-.062 2.75-.062 2.75-1 6-5.664 4.235-9.97 4.443-16.875 4.063-11.14-.568-19.361 1.899-28.125 8.937a221 221 0 0 0-4.687 4.688c-5.167 5.272-8.582 7.438-16.063 7.562-3.655-.09-7.245-.323-10.875-.75-12.093-1.326-23.711-1.19-35.375 2.5-1.33.343-2.663.68-4 1v2c6.997 1.75 13.807 2.538 21 3l-.625-2.375L386 585c2-2 2-2 5.438-2.375C395 583 395 583 397 584.688c1 2.312 1 2.312 1 4.812-1.32 3.3-3.073 4.549-6 6.5-5.371 1.79-10.322 1.54-15.687-.187-2.564-1.403-4.298-2.56-6.438-4.438-3.034-2.507-4.032-3.185-7.875-3.375a58 58 0 0 0-7.187 3.438l-2 1.087c-5.051 2.831-9.413 6.158-13.665 10.104C337 604 337 604 334.434 603.87c-2.43-.87-3.806-1.704-5.747-3.371-4.077-3.181-8.363-5.877-12.812-8.5l-2.064-1.28c-3.501-2.02-5.022-2.862-9.116-2.126-2.883 1.383-2.883 1.383-5.695 3.906-5.211 4.343-10.067 4.902-16.664 4.754-4.163-.453-6.338-2.256-9.211-5.129C272 590 272 590 272.188 587.375 273 585 273 585 275 583c3.5-.25 3.5-.25 7 0l2 2c-.375 2.625-.375 2.625-1 5q3.846-.426 7.688-.875l2.185-.238c4.012-.477 7.427-1.15 11.127-2.887q-2.275-.983-4.562-1.937l-2.567-1.09c-5.847-1.981-11.75-2.133-17.871-2.098l-2.04-.012c-4.413.009-8.6.506-12.96 1.137-2.855.205-5.7.274-8.562.313l-2.21.087c-6.76.08-10.447-2.62-15.236-7.24l-1.529-1.526c-8.83-8.737-16.19-12.827-28.854-12.764a184 184 0 0 0-5.869.225c-7.768.337-7.768.337-11.35-1.888-2.904-2.681-3.213-4.322-3.39-8.207 2.375-.625 2.375-.625 5-1 2.36 2.36 2.491 3.779 3 7l1.753-.063c19.287-.607 29.544 2.244 43.935 15.313 5.244 4.674 9.144 7.257 16.425 6.973L260 579l1.923-.145c9.74-.788 18.37-1.758 26.515-7.605 5.001-2.44 10.223-1.917 15.48-.418 2.731.984 5.407 2.042 8.082 3.168q2.5 1.002 5 2c.58-7.02.39-11.701-3.906-17.441C312 557 312 557 312 555l-1.875-.937L306 552c-11.346-1.47-20.793 6.263-29.66 12.484-9.812 6.808-20.455 9.15-32.34 7.516-3.536-1.732-5.86-3.69-8-7-.675-3.684-.788-5.61 1.063-8.875 2.963-1.72 5.538-1.95 8.937-2.125 2.938.938 2.938.938 5 2 1.25 6.625 1.25 6.625-1 10 15.76.613 24.243-2.726 37.047-11.406 6.175-4.128 11.405-7.142 18.953-5.594"/><path fill="#936717" d="M1 384h3l1 225 5-4c4.055-.975 7.309-.346 11 1.5l2 1.5 1.5-2.562c5.521-8.176 15.132-15.17 24.836-17.102L52 588c-.526 4.94-2.142 8.704-4.625 12.938l-1.08 1.862C42.57 609.033 38.026 613.903 32 618l1.477 1.227c1.892 2.202 1.927 3.28 1.898 6.148l.023 2.273C35 630 35 630 32 635l224 1-1 4H0l-.062-127.437-.028-40.315c-.005-16.182-.005-16.182-.005-23.745q-.002-7.964-.01-15.927-.011-10.137-.008-20.274 0-3.734-.006-7.467-.007-5.018-.001-10.034l-.01-2.997.007-2.699-.001-2.346C0 385 0 385 1 384"/><path fill="#9F9F9F" d="m335.5 329.125 2.594 1.07L340 331l-1 5-5-1-1 105 6-2h3v-2l1.813-.75c2.68-1.531 3.651-2.551 5.187-5.25a76 76 0 0 0 .432-8.349l.031-2.543c.03-2.77.04-5.54.049-8.311q.025-2.884.054-5.767c.048-5.057.077-10.114.104-15.171.03-5.161.076-10.323.121-15.484q.127-15.187.209-30.375h1v5h4v76l4-4h4c-5.998 13.166-19.274 20.949-32.266 25.856-6.504 2.174-12.59 2.687-19.421 2.644l-3.187-.017c-16.54-.377-30.207-7.094-42.126-18.483v-2h-2a92 92 0 0 1-4.375-6.312l-1.222-1.92c-4.546-7.341-7.51-14.048-7.403-22.768l2.599-.028q4.785-.067 9.571-.18 2.07-.042 4.138-.063a424 424 0 0 0 5.958-.12l3.618-.063c3.678-.645 4.863-1.627 7.116-4.546 1.28-4.334 1.67-9.761 0-14-3.436-2.326-6.665-2.307-10.734-2.414l-3.926-.117-4.09-.094-4.137-.117q-5.056-.141-10.113-.258c-.223-13.94 7.838-24.742 17-34.625 17.704-17.169 44.797-21.71 67.5-12.25M279 339c-.675.43-1.35.859-2.047 1.3-10.237 7.044-18.116 18.588-20.953 30.7l2.216.044c3.324.075 6.648.171 9.971.269l3.487.068 3.369.107 3.094.08c4.84.73 7.261 2.635 10.176 6.495 2.333 4.532 2.595 8.96 1.687 13.937-2.004 4.76-4.15 8.012-9 10-2.657.319-2.657.319-5.64.414l-3.243.117-3.367.094-3.414.117q-4.168.141-8.336.258c1.72 12.305 9.453 22.64 18.93 30.398 11.214 7.836 22.027 10.78 35.507 10.79l2.815.037 2.744.005 2.474.013c3.177-.21 3.177-.21 8.53-2.243V332c-16.896-4.827-34.17-2.651-49 7"/><path fill="#9D9D9D" d="m338 309 3.188 1.133c18.871 7.27 36.184 22.038 44.618 40.644 9.51 21.96 11.062 43.836 2.686 66.434-8.527 21.504-24.937 37.038-45.867 46.281-18.148 7.549-41.19 8.78-59.625 1.508-10.21-4.24-18.841-9.453-27-17l-2.355-2.078c-13.21-12.277-22.54-30.813-23.864-48.924-.965-26.954 4.51-46.955 22.559-67.685C273.782 306.515 308.662 298.21 338 309m-84 26c-13.731 15.05-20.947 34.58-20.132 54.967 1.385 21.352 9.83 39.894 25.417 54.69 18.309 15.805 37.927 20.624 61.773 19.581C336.643 462.976 351.4 455.203 363 445c.737-.643 1.475-1.286 2.234-1.95 14.76-13.767 22.458-32.33 24.016-52.245.472-22.124-6.908-41.37-21.923-57.523-9.942-10.276-22.55-17.49-36.327-21.282l-3.691-1.062c-4.523-1.115-8.856-1.243-13.497-1.188l-2.521.023c-22.808.394-41.461 9.016-57.291 25.227"/><path fill="#D8C376" d="M534 7c7.338 4.95 7.338 4.95 8.719 9.227L543 18h2l.563-2.125c2.453-4.908 6.41-7.905 11.312-10.25C564.174 4.165 571.342 4.392 578 8c4.341 3.463 7.241 7.059 8.125 12.625.19 4.996-1.459 8.361-4.625 12.188-3.359 2.658-7.19 2.513-11.273 2.48-3.295-.434-4.992-1.918-7.227-4.293-1.42-2.84-1.315-4.855-1-8 1.688-2.375 1.688-2.375 4-4 2.625-.437 2.625-.437 5 0 2 3 2 3 1.813 5-.927 2.281-1.897 3.467-3.813 5h-2l2 3c3.312-.301 5.534-.685 8.313-2.562 2.77-4.002 2.93-7.974 2.468-12.665-.397-2.442-.397-2.442-1.781-5.773-2.11-1.629-2.11-1.629-5-2l-3.75-.875C564.182 7.598 560.23 9.304 556 12c-4.018 3.57-6.726 7.764-7.184 13.172-.118 4.25.039 7.074 2.184 10.828l2-4 4 1-1.062 3.688c-1.199 4.73-1.199 4.73.062 9.312 4.079 4.023 8.21 5.347 13.875 5.5 8.702-.406 15.215-2.701 22.363-7.559C594 43 594 43 597 43.187l2 .813c-.552 4.62-1.82 8.028-4 12.125-3.852 7.278-5.147 13.596-4 21.875 1.667 3.465 3.575 5.969 6 9l13-1v4l-5 2c6.152 2.05 12.84 1.807 18.875-.562 4.378-2.252 7.184-4.88 9.125-9.438 1.243-4.833 1.594-9.275-.187-14-1.916-3.17-2.48-3.76-5.813-5-2.649-.315-2.649-.315-5.437-.25l-2.81-.016c-2.914.281-5.102 1.054-7.753 2.266v9h2l1.25-2c1.75-2 1.75-2 4.875-2.312C622 70 622 70 623 71c.235 5.53.235 5.53-1 8-2.992.933-5.878 1.239-9 1-3-2.375-3-2.375-5-5l-1-1c-.61-4.746-.44-8.167 1.813-12.437 2.285-2.678 3.883-4.39 7.457-4.864 5.327-.024 9.22.154 13.73 3.301 5.985 6.257 7.542 11.36 7.375 19.86-.697 5.839-2.89 10.866-7.266 14.87-1.922 1.395-1.922 1.395-5.109 3.27l2.125 1.563c4.153 3.52 8.13 7.2 9.875 12.437.39 4.755.46 7.078-1.687 11.375-3.41 3.87-5.76 4.459-10.813 5-4.116-.441-5.645-1.437-8.5-4.375-1.236-3.71-1.688-7.151-1-11 2.188-2.562 2.188-2.562 5-4 3.423.16 4.563.563 7 3 .37 2.883.42 4.39-1.25 6.813C624 120 624 120 620 120l1-5h3v-2l-6 2c-.357 3.209-.237 4.64 1.563 7.375 2.425 1.943 2.425 1.943 5.875 1.625 3.94-1.106 5.912-1.868 8.562-5 .649-4.543.685-6.743-1.5-10.75-5.583-5.025-12.339-6.94-19.5-8.687-5.696-1.478-10.547-2.922-15.344-6.454-1.877-1.257-3.626-1.825-5.781-2.484-4.561-1.574-7.354-4.568-9.875-8.625-1.145-3.25-1.103-6.326-1.062-9.75l.027-2.984L581 67h1l.297 2.195C583.21 75.1 584.04 79.441 588 84l3 1-1.5-3c-3.61-9.663-2.286-21.624 1.5-31l-1.758.621C577.394 55.707 568.487 56.371 557 51c1.4 3.383 2.827 5.146 6 7 3.033.786 3.033.786 6.25 1.188l3.266.48L575 60v2c-7.994.28-14.35-.52-20.441-6.11-2.33-2.824-3.405-5.84-4.602-9.273-.94-2.572-2.088-4.839-3.394-7.242-2.586-5.004-4.18-10.171-5.688-15.579-1.587-5.5-3.717-10.49-7.687-14.733C529.89 7.46 527.613 7.493 524 8c-2.93 1.995-4.645 3.428-5.445 6.973-.198 3.52.207 5.68 2.195 8.59 2.105 1.602 2.105 1.602 4.375 1.562 2.855-1.713 3.08-4.012 3.875-7.125h-2l-1 4h-4c.75-4.75.75-4.75 3-7 5.455.455 5.455.455 8 3 .5 3.161.261 4.58-1.437 7.313-3.773 2.484-7.17 2.486-11.563 1.687-2.87-1.794-4.491-2.983-6-6-.394-4.098-.234-6.514 1.563-10.25C520.938 4.685 526.814 3.856 534 7"/><path fill="#D39E42" d="M52 588c-.526 4.94-2.142 8.704-4.625 12.938l-1.08 1.862C42.57 609.033 38.026 613.903 32 618l1.477 1.227c1.892 2.202 1.927 3.28 1.898 6.148l.023 2.273C35 630 35 630 32 635l224 1-1 4a118079 118079 0 0 1-104.236.11l-2.214.001q-17.738.015-35.475.043-18.204.028-36.41.034-11.23.004-22.46.028-8.616.016-17.232.01-3.531 0-7.062.012c-3.216.01-6.432.008-9.648.003l-2.818.017C11.962 640.233 7.267 639.545 2 638l1-4H1v-9l2-1c.984 4.058 1.04 7.835 1 12q3.626-.173 7.25-.375c.682-.03 1.364-.062 2.066-.094 5.086-.296 8.082-.93 11.684-4.531 2.125.375 2.125.375 4 1 2.302-3.452 2.345-4.947 2-9-1.972-2.305-1.972-2.305-5.5-2.937C22 619 22 619 20 616a192 192 0 0 1-2-7l2.25-.125c3.267-1.04 3.833-2.29 5.547-5.133C31.04 596.15 42.52 588 52 588"/><path fill="#230E05" d="m613.776-.114 3.665.016 3.561.008 4.56.027L640 0v30c-5.76 1.152-6.488.593-11.25-2.375l-3.203-1.96C623 24 623 24 622 23v2.25c-1.185 3.258-1.81 3.462-4.813 4.937A338 338 0 0 1 613 32a313 313 0 0 0-4 2c3.205 0 3.973-.428 6.625-2 4.478-2.317 8.4-2.823 13.375-2 3.062 1.5 3.062 1.5 5 3l-1 2-2-1c-8.279-.828-16.24.368-23.125 5.187L606 41l7 2v-2l7-1-2 1c-.633 1.984-.991 3.952-1.36 6-.71 3.637-1.34 5.656-3.828 8.5-3.575 1.907-5.81 2.01-9.812 1.5-2.438-1.5-2.438-1.5-4-3l1-2 1.625 1.562c2.359 1.726 2.359 1.726 5.5 1.313 3.172-.633 3.172-.633 4.875-3.875-.312-2.646-.312-2.646-1-5l-5-1v2h3l-1 4h-8a117 117 0 0 0-4 5l-2 1c.944-2.428 1.876-4.773 3.125-7.063 1.15-2.19 1.15-2.19.875-5.937-2.763.523-5.326 1.109-8 2 1.112-3.335 2.474-4.637 5-7l-3-1c2.076-.553 3.844-1 6-1l-2-6c-2.354-.688-2.354-.688-5-1-3.126 1.605-3.126 1.605-3.512 3.945L587 40l-2-1c-.326-4.162-.407-6.363 1.875-9.938C589 27 589 27 591 27l1-4 9 1v-2l-3-1 4-1 1 7h2c2.158-6.07 2.209-11.594 2-18-2.169.506-4 1-6 2l1-4c5.75-.125 5.75-.125 8 1-.03-1.702-.03-1.702-.063-3.438.08-4.522.08-4.522 3.839-4.676"/><path fill="#D2C2A9" d="M372 549c7.571 2.867 14.383 7.343 21.016 11.927 6.252 4.217 11.9 5.348 19.359 5.26l3.71-.019c2.806.162 2.806.162 3.915-1.168l-2-1c-.312-2.75-.312-2.75 0-6 2-2.437 2-2.437 5-4 3.61-.225 6.807.329 10 2.125 1.697 3.182 1.54 5.337 1 8.875-2.445 3.815-5.263 5.705-9.437 7.375-13.721 2.407-24.937-3.602-36.125-11a6333 6333 0 0 0-6.254-4.04l-2.733-1.794c-5.185-3.26-9.295-4.853-15.451-3.541-5.62 3.287-9.314 7.677-11 14-.214 3.683-.18 7.317 0 11l2.414-1.277 3.211-1.66 3.164-1.653c3.294-1.446 5.615-2.3 9.211-2.41 2.648 1.04 4.915 2.074 7.375 3.438l1.941 1.025c1.57.831 3.128 1.682 4.684 2.537-4.188 2.479-8.799 3.023-13.512 3.855-3.492.649-6.374 1.452-9.488 3.145l-1.897.445c-3.462.914-6.38 2.899-9.416 4.742l-2.025 1.221c-4.619 2.832-8.727 5.849-12.662 9.592-3.618-1.288-6.243-2.797-9.187-5.25-4.67-3.75-9.617-6.789-14.813-9.75l4-4c3.428 1.532 6.1 3.564 9 5.938 4.965 4.804 4.965 4.804 11 7.062l1-2-1.617-.191c-3.42-1.161-5.822-3.416-8.508-5.746l-1.629-1.381C323.093 582.848 321 581 319 579l2.012-1.758C325.732 573.066 330.154 569 334 564c4.51 1.417 6.954 3.663 10.188 7.063 3.08 3.406 3.08 3.406 6.812 5.937l-1-2c-1.099-7.283.903-12.987 5-19 5.025-5.327 9.456-8.225 17-7"/><path fill="#030303" d="m256.25 36.75 2.238-.062c6.477-.046 11.075 1.328 16.2 5.5 4.074 4.954 7.152 10.001 6.757 16.667-1.406 6.775-4.65 12.35-10.406 16.208C261.864 79.28 255.891 78 245 78V38c3.77-1.257 7.322-1.223 11.25-1.25"/><path fill="#0C0704" d="M575.813 9.063c3.676 3.256 5.016 7.2 5.32 12.062-.24 3.714-1.105 5.837-3.32 8.813-3.068 2.249-5.056 2.8-8.813 3.062l-2-4 5-4-1-5c-2.343.256-4.678.593-7 1-1.444 2.889-1.377 4.796-1 8 1.81 3.06 1.81 3.06 5 5 4.274.82 7.836.456 11.875-1.125 2.627-2.318 3.772-4.671 5.125-7.875l3 4-2 3a98 98 0 0 0 0 7l.25-3.312C587 32 587 32 588.75 30c2.883-1.281 4.296-1.01 7.25 0 2 2 2 2 2.125 4.625L598 37l-5 1 2 1c-2.364 5.262-6.027 8.619-11.262 11.05-6.94 2.359-15.275 3.857-22.207.895C558.684 49.202 556.36 47.36 554 45c.331-4.106.844-8.038 2-12l-3-1-2 7c-3.345-5.017-3.683-10.08-3-16 1.873-6.218 5.658-10.435 11-14 5.79-2.833 10.944-2.154 16.813.063"/><path fill="#E6E6E6" d="M447 35h2c5.203 11.768 9.83 23.74 14.438 35.75l2.197 5.71 1.09 2.837q1.077 2.796 2.164 5.586c1.731 4.459 3.406 8.923 4.96 13.447l.896 2.527a165 165 0 0 1 1.587 4.7c.788 2.375.788 2.375 2.668 5.443 3.57 1.586 3.57 1.586 7 2v2h-19v-2l6-1c-.648-3.751-1.7-7.118-3.066-10.668l-1.221-3.205-1.276-3.314q-1.256-3.27-2.503-6.543l-1.124-2.92C463 83 463 83 463 81h-32l-3 10a259 259 0 0 1-2.562 6.813l-1.254 3.207a241 241 0 0 1-2.336 5.68c-1.02 2.36-1.02 2.36-.848 5.3l7 1v2h-18v-2l8-1 .535-1.861a224 224 0 0 1 5.906-17.424l.983-2.58q1.564-4.101 3.139-8.198l2.158-5.645C436.01 62.472 441.412 48.702 447 35"/><path fill="#050505" d="M470.395 434.668C475.08 438.556 478.97 443.23 481 449l1 13h-34l-3-8c-4.377-5.35-9.548-8.874-16.437-9.75L425 444v-2c11.607-8.406 31.83-15.807 45.395-7.332"/><path fill="#A1A1A1" d="M476 436c1.813 0 1.813 0 4 1 5.288 7.53 7.508 15.861 7 25h4c.278 13.053-.433 25.901-1.6 38.901-.28 3.15-.541 6.3-.802 9.45q-.262 3.012-.528 6.024l-.234 2.847-.242 2.614-.202 2.298C487 526 487 526 485 528h-3l-1 2 1.567-20.451c1.112-14.52 2.272-29.034 3.433-43.549H385l2-3-2-2c4.746-7.458 4.746-7.458 8-10 2.25.25 2.25.25 4 1-1.477 4.307-2.956 6.195-6 10h52l-2-5 1-3 5 1 1 7h34c-1.603-11.53-1.603-11.53-6-21-.684-2.152-.684-2.152-1-4z"/><path fill="#E4B262" d="M96 544c-1.538 3.48-3.615 6.1-6.062 9-13.763 16.666-23.012 31.68-22.27 54.129.658 5.69 2.227 9.14 6.684 12.805 2.503 1.775 5.055 3.425 7.648 5.066a217 217 0 0 1 4 3c-8.363.836-13.834-1.8-21-6l-1-1a321 321 0 0 0-10.098-1.162c-3.665-.41-5.78-.757-8.902-2.838v-2l2.45-.332 3.237-.48 3.2-.458c3.296-.773 5.438-1.66 8.113-3.73.96-1.92.96-1.92 1.188-4.187l.425-2.676c.285-2.308.55-4.619.805-6.93C65.53 586.177 67.38 577.101 72 568l-3.453 1.863c-4.338 2.165-8.566 3.35-13.297 4.324l-2.37.51c-5.45 1.125-10.836 1.846-16.4 2.127-2.562.182-4.974.623-7.48 1.176-2.48 6.243-3.32 11.283-3 18l-3-1c-2.218-4.607-3.103-8.282-3.312-13.375-.344-5.485-2.24-8.949-5.313-13.434C11.502 563.613 11.913 559.25 12 554c1.94 2.313 3.763 4.606 5.32 7.195 3.345 5.538 6.278 9.096 12.68 10.805 17.841 2.393 34.704-4.486 48.633-14.984 4.75-3.749 9.316-7.674 13.773-11.766C94 544 94 544 96 544"/><path fill="#222" d="M490 597c5.281 1.794 7.799 4.61 11 9 1.8 5.397 1.695 10.1-.625 15.25-2.628 4.76-6.263 7.046-11.375 8.75-1.553.146-3.11.247-4.668.316l-2.705.127-2.815.12-2.85.13q-3.48.159-6.962.307l.879-7.617c.318-2.4.318-2.4-.879-4.383-.524-5.256-.665-9.645 1.688-14.437 6.106-6.767 10.411-8.304 19.312-7.563"/><path fill="#E2D0AF" d="M478 550c2.625.375 2.625.375 5 1-.062 2.75-.062 2.75-1 6-5.664 4.235-9.97 4.443-16.875 4.063-11.14-.568-19.361 1.899-28.125 8.937a221 221 0 0 0-4.687 4.688c-5.167 5.272-8.582 7.438-16.063 7.562-3.655-.09-7.245-.323-10.875-.75-12.093-1.326-23.711-1.19-35.375 2.5-1.33.343-2.663.68-4 1v2c6.997 1.75 13.807 2.538 21 3l-.625-2.375L386 585c2-2 2-2 5.438-2.375C395 583 395 583 397 584.688c1 2.312 1 2.312 1 4.812-1.32 3.3-3.073 4.549-6 6.5-5.371 1.79-10.322 1.54-15.687-.187-2.564-1.403-4.298-2.56-6.438-4.438-3.034-2.507-4.032-3.185-7.875-3.375a58 58 0 0 0-7.187 3.438l-2 1.087c-5.051 2.831-9.413 6.158-13.665 10.104C337 604 337 604 334.445 603.875c-2.462-.881-3.949-1.773-5.945-3.437-5.496-4.344-11.505-7.837-17.5-11.438l2-1v-2c4.572 1.302 7.841 3.076 11.625 5.938l2.79 2.09L330 596q2 1.5 4 3c4.382-1.977 8.157-4.85 12.047-7.635A71 71 0 0 1 357 585v-2l2.875-.312c3.99-.564 7.708-1.721 11.547-2.922 3.82-1.135 7.679-1.948 11.578-2.766-3.938-2.317-7.692-4.434-12-6v-1c5.016-.669 7.475.111 11.75 2.813 7.825 4.571 16.385 5.27 25.25 6.187l3.316.387c7.24.463 12.039-1.966 17.684-6.387 1.813-1.699 3.523-3.458 5.227-5.266 8.047-7.87 16.929-11.099 28.007-10.998l3.266.077 3.36.04q4.07.054 8.14.147l-.625-2.375L476 552z"/><path fill="#0A0404" d="m622 21 2 1v2a451 451 0 0 0 5.188 3l2.917 1.688C635.1 30.045 636.781 30.114 640 30c.127 7.617.214 15.234.275 22.852q.037 3.887.102 7.775c.06 3.723.09 7.446.111 11.17l.078 3.517c.003 8.064.003 8.064-3.097 11.449L635 88l.48-2.137c1.336-7.358 1.596-14.65-2.27-21.242-2.561-3.43-5.188-5.28-9.21-6.621a119 119 0 0 0-5.687-.062l-3.012.027L613 58l-1-3 1.375-1.625c2.137-3.123 2.116-5.733 2.316-9.45L616 42l2-1h-5v2l-10-2 4-2 2.75-2c6.842-4.21 13.453-4.26 21.25-4h2c-4.407-2.455-8.037-2.77-13-2-3.809 1.409-7.404 3.118-11 5v-2c1.355-1.219 1.355-1.219 3.188-2.5l1.925-1.348C616 29 616 29 618.875 28.062c.701-.35 1.403-.7 2.125-1.062.898-3.053.898-3.053 1-6"/><path fill="#040404" d="M238 239h46v19h-46z"/><path fill="#CEA55C" d="M86 566h2c3.063 4.594 2.464 9.602 1.465 14.766-1.265 5.279-2.846 10.327-4.715 15.422-1.769 5.216-2.557 9.51-.75 14.812 1.686 3.27 1.686 3.27 5 5 6.257.981 11.612.545 17-3 1.432-1.216 1.432-1.216 1.313-4.812-.054-3.005-.206-4.021-1.876-6.625-3.19-2.046-5.67-2.426-9.437-2.563l-3 2c.113 1.959.113 1.959 1 4 2.49 1.297 2.49 1.297 5 2v1c-6.408.363-6.408.363-8.937-1.187-1.526-2.602-1.7-3.841-1.063-6.813 2.53-2.847 4.246-4.596 7.969-5.453 5.075-.273 8.099 1.146 12.031 4.453 2.969 2.89 3.91 4.299 4.438 8.438-.49 3.99-1.511 7.635-4.438 10.562l83 1v4q-19.376.106-38.752.155-8.998.022-17.995.071c-5.79.033-11.58.05-17.37.059q-3.312.008-6.623.032c-3.096.022-6.19.025-9.286.024l-2.757.032c-6.977-.034-11.737-1.162-17.092-5.936-3.805-4.364-3.567-7.959-3.555-13.62.482-4.28 1.693-7.58 3.368-11.505 3.696-8.67 4.04-16.976 4.062-26.312"/><path fill="#9D9D9D" d="M257 371c3.875-.117 7.749-.187 11.625-.25l3.316-.102c6.348-.077 10.294-.021 15.059 4.352 3.62 4.762 4.709 8.514 4.453 14.5-.932 5.144-3.444 9.076-7.693 12.087-3.128 1.601-5.01 1.762-8.498 1.706l-3.233-.03-3.341-.075-3.4-.042A859 859 0 0 1 257 403c2.728 8.028 5.815 14.28 11 21l2.188 3.125c7.625 8.8 19.528 13.963 30.812 15.875 2.057.08 4.117.108 6.176.098l3.506-.01 3.63-.026 3.69-.013q4.5-.018 8.998-.049l2 4c-12.2 5.193-29.745 3.334-41.8-1.445-7.856-3.818-14.882-8.518-21.2-14.555v-2h-2a92 92 0 0 1-4.375-6.312l-1.222-1.92c-4.546-7.341-7.51-14.048-7.403-22.768l2.599-.028q4.785-.067 9.571-.18 2.07-.042 4.138-.063a424 424 0 0 0 5.958-.12l3.618-.063c3.678-.645 4.863-1.627 7.116-4.546 1.349-4.57 1.328-9.426 0-14l-3-1 2-1v-2l-2-1-1-1a96 96 0 0 0-5.129-.316l-3.135-.127-3.298-.12-3.311-.13q-4.064-.16-8.127-.307z"/><path fill="#EBB970" d="M18 448h3l1 84 6-5c4.045-.842 7.65.13 11.098 2.352 2.447 2.04 4.468 3.78 5.902 6.648.363 5.443.427 9.468-3 14-3.444 1.045-5.655 1.694-8.937 0-1.59-2.99-1.25-5.68-1.063-9l.875 1.875c1.062 2.258 1.062 2.258 3.125 4.125 2.083-.167 2.083-.167 4-1 1.444-2.889 1.377-4.796 1-8-1.937-3.02-1.937-3.02-5-5-3.543-.75-3.543-.75-7 0-2.365 1.867-3.66 3.32-5 6-.41 4.906-.626 9.467 1.25 14.063 2.863 3.169 5.276 3.874 9.5 4.437 4.701-.062 8.543-1.713 12.813-3.5 8.055-3.325 15.743-4.398 24.437-3l2 3-2.535-.176c-10.785-.418-19.14 1.903-29 6.309-5.477 1.927-12.43 2.27-17.762-.196-4.862-3.823-7.246-9.116-7.977-15.23-.1-2.536-.109-5.057-.082-7.595l-.007-2.896c-.003-3.133.016-6.266.035-9.4q.005-3.274.006-6.55.007-6.842.04-13.685c.03-5.86.04-11.72.044-17.58q.008-6.753.026-13.504.008-3.243.015-6.487.01-4.513.036-9.027l.003-2.728c.043-6.14.043-6.14 1.158-7.255"/><path fill="#E4E4E4" d="M234 35q6.134-.112 12.268-.165 2.08-.022 4.16-.061c20.562-.379 20.562-.379 28.01 6.476 4.757 4.604 6.667 9.093 7 15.688-.277 7.305-3.021 12.004-8.25 17C273.448 77.024 270.809 77.9 266 78v2l2.125.563c4.64 2.32 7.703 5.38 9.563 10.233.91 2.761 1.742 5.532 2.488 8.341 1.245 4.574 2.856 8.064 5.824 11.863 2.604 1.412 2.604 1.412 5 2v2c-3.27.458-5.856.808-8.66-1.172-5.094-5.472-7.005-12.291-9.074-19.324-1.74-5.73-3.782-10.083-8.88-13.625-3.644-1.342-7.28-1.35-11.136-1.504L245 79l1 33 6 1v2h-18v-2l6-1 1-74-7-1zm11 3v40c15.624.487 15.624.487 28.75-4.562 4.146-4.491 7.434-10.232 7.875-16.438-.439-5.847-3.198-11.627-7.375-15.71-4.313-3.217-7.98-4.414-13.254-4.423l-2.244-.004-2.315.012-2.326-.012c-3.29.006-5.969.09-9.111 1.137"/><path fill="#9C9C9C" d="m240.076 233.87 3.206-.009 3.472.006 3.549-.003q3.719 0 7.437.006c3.81.005 7.62 0 11.43-.007q3.604 0 7.209.004l3.478-.006 3.196.01 2.828.002C288 234 288 234 289 235c.1 1.988.13 3.979.133 5.969l.004 3.668-.012 3.863.012 3.863-.004 3.668-.004 3.393C289 262 289 262 288 263c-1.683.099-3.37.128-5.055.13l-3.266.009-3.554-.006-3.62.003q-3.8 0-7.597-.006-5.836-.006-11.674.007-3.68 0-7.359-.004l-3.554.006-3.266-.01-2.891-.002C234 263 234 263 233 262c-.088-2-.107-4.002-.098-6.004l.01-3.682.025-3.877.014-3.888q.018-4.774.049-9.549c2.52-1.26 4.256-1.127 7.076-1.13M238 239v19h46v-19z"/><path fill="#050505" d="M355 350c9.972 9.972 14.225 22.569 14.375 36.5-.059 6.887-.994 13-3.375 19.5l-.879 2.61c-2.114 5.838-4.931 10.775-9.121 15.39h-1z"/><path fill="#E5D3B6" d="M191 550.063c2 .937 2 .937 3.125 3.996L195 557l1.753-.063c19.287-.607 29.544 2.244 43.935 15.313 5.244 4.674 9.144 7.257 16.425 6.973L260 579l1.923-.145c9.74-.788 18.37-1.758 26.515-7.605 4.928-2.404 10.56-1.89 15.687-.25l1.875 1v2l-2.125-.36c-7.061-.959-10.816-.412-16.875 3.36l3.473.77 4.59 1.043 2.279.501c4.837 1.11 9.153 2.598 13.658 4.686v3l-1.758.48c-3.997 1.194-7.297 2.26-10.43 5.082-5.053 4.38-9.996 4.838-16.476 4.692-4.163-.453-6.338-2.256-9.211-5.129C272 590 272 590 272.188 587.375 273 585 273 585 275 583c3.5-.25 3.5-.25 7 0l2 2c-.375 2.625-.375 2.625-1 5q3.846-.426 7.688-.875l2.185-.238c4.012-.477 7.427-1.15 11.127-2.887q-2.275-.983-4.562-1.937l-2.567-1.09c-5.847-1.981-11.75-2.133-17.871-2.098l-2.04-.012c-4.413.009-8.6.506-12.96 1.137-2.855.205-5.7.274-8.562.313l-2.21.087c-6.76.08-10.447-2.62-15.236-7.24l-1.529-1.526c-8.83-8.737-16.19-12.827-28.854-12.764a184 184 0 0 0-5.869.225c-7.768.337-7.768.337-11.35-1.888-2.904-2.681-3.213-4.322-3.39-8.207 2-1 2-1 4-.937"/><path fill="#9B9B9B" d="m425.406 474.336 2.432-.015q2.536-.005 5.073.027c2.582.027 5.16 0 7.741-.032q2.471.006 4.942.02l2.327-.03c4.011.087 5.878.536 9.065 3.048C459 480 459 480 459.625 483c-.854 4.102-2.354 5.414-5.625 8-2.933.476-5.267.658-8.187.594h-2.365a343 343 0 0 1-4.931-.052 387 387 0 0 0-7.525-.034q-2.402-.016-4.805-.04h-2.26c-4.46-.1-7.381-.71-10.927-3.468-1.444-2.889-1.377-4.796-1-8 3.85-5.121 7.306-5.744 13.406-5.664"/><path fill="#F7BF66" d="M1 384h3v228l-3-1z"/><path fill="#9C723A" d="M624 57c5.19 1.763 7.824 4.588 11 9 3 6.307 3.185 13.169 1.125 19.828C633.471 91.66 630.497 94.766 625 98l2.125 1.563c4.153 3.52 8.13 7.2 9.875 12.437.39 4.755.46 7.078-1.687 11.375-3.41 3.87-5.76 4.459-10.813 5-4.116-.441-5.645-1.437-8.5-4.375-1.236-3.71-1.688-7.151-1-11 2.188-2.562 2.188-2.562 5-4 3.423.16 4.563.563 7 3 .37 2.883.42 4.39-1.25 6.813C624 120 624 120 620 120l1-5h3v-2l-6 2c-.357 3.209-.237 4.64 1.563 7.375 2.425 1.943 2.425 1.943 5.875 1.625 3.94-1.106 5.912-1.868 8.562-5 .649-4.543.685-6.743-1.5-10.75-6.437-5.793-14.207-7.426-22.5-9.25.547-1.86.547-1.86 2-4a74 74 0 0 1 7.25-2.25c5.658-1.69 9.74-3.285 12.863-8.508 2.14-5.412 2.766-10.72.7-16.242-1.916-3.17-2.48-3.76-5.813-5-2.649-.315-2.649-.315-5.437-.25l-2.81-.016c-2.914.281-5.102 1.054-7.753 2.266v9h2l1.25-2c1.75-2 1.75-2 4.875-2.312C622 70 622 70 623 71c.235 5.53.235 5.53-1 8-2.992.933-5.878 1.239-9 1-3-2.375-3-2.375-5-5l-1-1c-.61-4.746-.44-8.167 1.813-12.437 4.551-5.333 8.6-5.211 15.187-4.563"/><path fill="#9B9B9B" d="m335.5 329.125 2.594 1.07L340 331l-1 5c-5.644-1.63-5.644-1.63-7.625-3.687L330 331c-1.931.357-1.931.357-4 1l-2.04-.441c-15.809-2.983-31.433-.203-44.96 8.441l-1.824 1.078C267.142 347.482 259.684 359.538 257 371l2.064.044c3.083.075 6.166.171 9.248.269l3.249.068 3.115.107 2.872.08c2.825.498 3.773 1.14 5.452 3.432v2l-32-1c0-14.052 7.722-24.617 17-34.625 17.704-17.169 44.797-21.71 67.5-12.25"/><path fill="#050505" d="M336 146c3.166-.147 6.331-.235 9.5-.312l2.688-.127c6.367-.118 11.058.995 15.812 5.439 2.518 4.275 2.566 8.14 2 13-1.649 3.71-3.951 6.333-7 9-2.766.922-4.383 1.118-7.23 1.098l-2.432-.01-2.526-.025-2.56-.014q-3.126-.02-6.252-.049l2-1c-.08-4.126-.193-8.25-.312-12.375l-.069-3.562-.107-3.399-.08-3.142L339 148z"/><path fill="#070707" d="m333 334 6 2v102l-6 2z"/><path fill="#E8E8E8" d="m206 39 2.09.84c2.877 1.277 4.631 2.439 5.781 5.414.511 2.252.889 4.45 1.129 6.746h-2l-1.687-2.625c-3.904-6.07-8.972-9.94-15.93-11.898-7.532-1.507-13.31-.867-20.063 2.921C167.821 45.575 164.23 52.674 161 61l-1.312 3.313c-2.565 13.757 0 26.734 7.812 38.375 4.583 5.952 9.217 9.427 16.5 11.312 7.947.897 15.151-1.544 21.5-6.437 3.48-3.568 4.421-6.13 4.695-11.114l-.07-3.761-.055-3.801L210 86l-6-1v-2h18v2l-7 1 .352 3.91c.852 13.401.852 13.401-2.262 17.77-2.619 1.82-5.151 3.09-8.09 4.32l-2.105 1.281c-6.98 3.996-15.144 3.608-22.895 2.719-9.497-2.788-15.604-9.184-20.312-17.625-5.717-10.932-7.873-23.383-4.5-35.5C159.03 51.773 164.217 43.17 174.5 37c10.045-4.573 21.988-3.027 31.5 2"/><path fill="#999" d="M210 235c4.798 2.399 7.565 5.224 10 10 .872 5.992-.605 9.23-4 14-3.9 3.663-8.294 3.503-13.406 3.352-4.7-.637-6.57-3.082-9.406-6.602-1.57-3.637-1.885-6.888-1.188-10.75 4.317-7.89 8.747-11.247 18-10"/><path fill="#28160A" d="M72 567c0 3.87-1.396 6.53-2.93 10.04-2.85 7.883-3.568 15.888-4.017 24.206-.354 4.348-.657 6.267-3.49 9.754-5.45 4.253-10.855 4.505-17.563 5v-2l4-1 1-4h-2c1.435-2.87 3.804-4.32 6.309-6.27 3.93-4.02 4.382-9.712 5.316-15.043l.406-2.244q.491-2.72.969-5.443l-3.375.875c-3.194.813-6.378 1.437-9.625 2-6.44 1.258-11.948 3.915-17 8.125.253-3.411 1.235-4.22 3.813-6.625C37 582 37 582 39.063 581c2.175-.967 2.175-.967 4.007-3.434 3.78-3.31 6.893-3.816 11.743-4.629 6.41-1.123 11.456-2.794 17.187-5.937"/><path fill="#F8BF62" d="M2 624h1c.984 4.058 1.04 7.835 1 12q3.626-.173 7.25-.375c.682-.03 1.364-.062 2.066-.094 5.086-.296 8.082-.93 11.684-4.531 3.785 1.514 4.007 2.014 6 6h213v1c-5.15 1.042-10.096 1.158-15.323 1.172l-2.82.019q-4.67.028-9.34.046l-6.703.04a13763 13763 0 0 1-18.199.092l-11.37.056q-18.811.096-37.623.179l-2.047.009-2.05.008q-16.442.074-32.884.17-16.897.095-33.793.169-9.48.04-18.96.097-8.918.053-17.833.081-3.27.013-6.54.036c-2.98.022-5.958.03-8.938.035l-2.605.028c-5.318-.008-9.86-.754-14.972-2.237l1-4H1q-.04-2.22-.062-4.437l-.036-2.497C1 625 1 625 2 624"/><path fill="#060606" d="M446 42h2l4.787 12.582c1.6 4.208 3.203 8.414 4.858 12.602L459 70.625l1.188 2.977C461 76 461 76 461 79h-28c.81-4.855 1.932-8.865 3.723-13.367l.802-2.06c.84-2.151 1.689-4.3 2.538-6.448l1.72-4.398Q443.883 47.36 446 42"/><path fill="#0A0A0A" d="M437.313 451.813c2.75 2.238 4.208 3.982 5.687 7.187v3h-52c2.934-5.867 7.03-9.465 13.188-11.812 10.86-3.383 22.905-3.967 33.125 1.625"/><path fill="#010101" d="M344 340c5 3 5 3 6 4 .116 2.656.168 5.287.177 7.945l.02 2.522q.028 4.152.041 8.303l.013 2.857q.03 7.485.044 14.972c.011 5.162.046 10.323.085 15.485.026 3.963.035 7.925.038 11.888q.008 2.855.035 5.709c.025 2.662.024 5.324.017 7.986l.039 2.389c-.034 3.585-.222 5.564-2.413 8.465C346 434 346 434 344 434z"/><path fill="#E6E6E6" d="M333 35h18v2l-5 1c1.25 4.05 2.739 7.616 4.828 11.3l1.676 2.964 1.746 3.048 1.7 3.014C359.396 64.39 363.037 70.26 367 76l1.405-2.46C383 48 383 48 384.105 46.106c2.542-4.322 2.542-4.322 3.895-9.105h-6v-2h16v2l-3.066.262c-4.032 1.163-5.324 3.404-7.399 6.945a365 365 0 0 0-3.473 6.605 2690 2690 0 0 1-3.464 6.52l-1.74 3.355C377 64 377 64 374.794 67.08c-6.73 9.463-6.78 17.08-6.294 28.233q.06 2.44.11 4.88c.086 3.938.224 7.872.39 11.807l6 1v2h-19v-2l7-2c2.425-22.933-.904-36.846-13.938-55.893-2.725-4.106-5.092-8.383-7.443-12.713-2.398-3.547-4.532-4.393-8.619-5.394z"/><path fill="#22150D" d="M334 564c4.43 1.418 6.994 3.59 10.25 6.875l2.64 2.617c2.05 2.437 2.512 3.514 3.11 6.508a512 512 0 0 1-6.187 5.563l-1.752 1.615c-4.312 3.775-4.312 3.775-7.561 3.978-3.5-1.619-6.327-3.799-9.312-6.218l-1.811-1.432A624 624 0 0 1 319 580l2.168-2.137c2.809-2.808 5.481-5.728 8.144-8.676l2.676-2.957z"/><path fill="#C79F53" d="m597 43.188 2 .812c-.552 4.62-1.82 8.028-4 12.125-3.852 7.278-5.147 13.596-4 21.875 1.667 3.465 3.575 5.969 6 9l13-1v4l-5 2 9 2-2 2 1 2c-6.094-.155-10.034-1.256-15.027-4.75-2.02-1.28-3.819-1.933-6.098-2.625-4.561-1.574-7.354-4.568-9.875-8.625-1.145-3.25-1.103-6.326-1.062-9.75l.027-2.984L581 67h1l.297 2.195C583.21 75.1 584.04 79.441 588 84l3 1-1.5-3c-3.61-9.663-2.286-21.624 1.5-31l-1.758.621c-11.076 3.82-20.229 4.753-31.242.379 1.875-1.062 1.875-1.062 4-2l2 1c10.895.896 19.248-.95 28.238-7.059C594 43 594 43 597 43.187"/><path fill="#140B06" d="m86 590 7 6-1.5 1.688c-1.77 2.727-1.92 4.12-1.5 7.312l2 2h3l-1.562-1.25C92 604 92 604 92.125 601.938 93 600 93 600 96 598c4.213.078 6.472.63 9.938 3.063 2.892 4.119 2.85 5.974 2.062 10.937-3.14 3.31-5.956 4.807-10.523 5.238-7.682.2-7.682.2-11.54-1.926-3.418-4.08-4.128-6.864-3.75-12.125.587-4.767 1.935-8.779 3.813-13.187"/><path fill="#170B07" d="m44 576 1 2h-3l-1 3c-1.956 1.372-3.997 2.47-6.09 3.621C32.73 586.194 32 587.537 31 590l2.5-2.312c7.642-6.248 17.06-6.643 26.5-7.688q-.424 3.908-.875 7.813l-.238 2.236c-.432 3.666-.807 5.83-2.887 8.951l.063-2.875c.163-3.032.163-3.032-1.063-5.125l-4 2 1-5c-7.287 2.898-14.25 5.995-21 10l-3-3-2 1c-1.864-3.729-1.462-7.463-.281-11.39 1.365-3.413 2.409-5.969 5.406-8.173 4.297-.653 8.538-.589 12.875-.437"/><path fill="#E1CFB7" d="M478 550c2.625.375 2.625.375 5 1-.062 2.75-.062 2.75-1 6-5.664 4.235-9.97 4.443-16.875 4.063-11.14-.568-19.361 1.899-28.125 8.937a221 221 0 0 0-4.687 4.688c-5.167 5.272-8.582 7.438-16.063 7.562-3.655-.09-7.245-.323-10.875-.75-11-1.246-22.415-.914-33.375.5l-1-2 12-3c-3.938-2.317-7.692-4.434-12-6v-1c5.016-.669 7.475.111 11.75 2.813 7.825 4.571 16.385 5.27 25.25 6.187l3.316.387c7.24.463 12.039-1.966 17.684-6.387 1.813-1.699 3.523-3.458 5.227-5.266 8.047-7.87 16.929-11.099 28.007-10.998l3.266.077 3.36.04q4.07.054 8.14.147l-.625-2.375L476 552z"/><path fill="#150A06" d="M599 20h3l1 7h2l1-3 1 2c-.996 2.602-.996 2.602-2.437 5.625l-1.434 3.04L602 37l4 1v3l7 2v-2l7-1-2 1c-.633 1.984-.991 3.952-1.36 6-.71 3.637-1.34 5.656-3.827 8.5-3.576 1.907-5.811 2.01-9.813 1.5-2.437-1.5-2.437-1.5-4-3l1-2 1.625 1.563c2.359 1.725 2.359 1.725 5.5 1.312 3.172-.633 3.172-.633 4.875-3.875-.312-2.646-.312-2.646-1-5l-5-1v2h3l-1 4h-8a117 117 0 0 0-4 5l-2 1c.944-2.428 1.876-4.773 3.125-7.062 1.15-2.191 1.15-2.191.875-5.938-2.763.523-5.326 1.109-8 2 1.112-3.335 2.474-4.637 5-7l-3-1c2.076-.553 3.844-1 6-1l-2-6c-2.354-.688-2.354-.688-5-1-3.126 1.605-3.126 1.605-3.512 3.945l-.176 2.18L587 40l-2-1c-.326-4.162-.407-6.363 1.875-9.937C589 27 589 27 591 27l1-4 9 1v-2l-3-1z"/><path fill="#F2F2F2" d="M303 35h18v2l-6 2v73l6 1v2h-18v-2l6-1V39l-6-2z"/><path fill="#F9F9F9" d="M239 36h18v1l-12 1v40h19v1h-19l1 33 6 1v2h-18v-2l6-1q.034-14.421.052-28.842.007-6.695.023-13.39.016-6.459.02-12.917.003-2.468.01-4.935.01-3.448.009-6.896l.006-3.97c.093-2.967.093-2.967-1.12-5.05"/><path fill="#D7D7D7" d="M369 146a364 364 0 0 1 7.125-.25l2.016-.102c5.104-.1 8.049.965 11.859 4.352.787 2.874.302 4.976 0 8l-4 2 1.531 2.336 1.969 3.039 1.969 3.023C393 171 393 171 393 173l3 1c-1.687.75-1.687.75-4 1-4.346-2.563-6.333-5.94-8.594-10.293-1.585-2.29-1.585-2.29-6.406-2.707v11l3 1h-9l1-2c.268-3.807.232-7.622.25-11.437l.063-3.221.015-3.088.028-2.834c-.415-2.82-1.159-3.68-3.356-5.42"/><path fill="#070302" d="M615 0h25v28c-11-4-11-4-14-6l12 1-1-3-13-1c2-4 2-4 4.625-5.25L631 13V9c-2.972 1.125-5.334 2.223-8 4l-2-10-6-1z"/><path fill="#EED5AF" d="M431 555c2 1.125 2 1.125 3 3 .573 3.372.799 5.753-1.102 8.719-4.304 4.695-8.766 5.905-15.023 6.656-11.894-1.151-21.478-6.34-30.875-13.375l-1-2c4.206 1.493 7.896 3.61 11.719 5.879 4.72 2.32 9.338 2.257 14.531 2.246l3.766.008c2.867.209 2.867.209 3.984-1.133l-2-1c-.312-2.75-.312-2.75 0-6 4.02-4.9 7.295-4.38 13-3"/><path fill="#B8944E" d="M17 449h1l1 89 3-3c1.044 3.133.934 3.99 0 7h-2l1.313 2.063C23 547 23 547 24.375 550.625c1.848 3.84 2.66 4.91 6.625 6.375 6.363.939 10.722-.565 16.563-3 8.056-3.324 15.742-4.399 24.437-3l2 3-2.535-.176c-10.785-.418-19.14 1.903-29 6.309-5.477 1.927-12.43 2.27-17.762-.196-4.378-3.442-6.227-7.614-7.703-12.937-.391-3.31-.381-6.575-.34-9.904l-.002-2.9c.002-3.139.025-6.276.049-9.415q.009-3.278.013-6.557c.011-5.734.04-11.468.074-17.202.03-5.86.044-11.718.06-17.577q.05-17.223.146-34.445"/><path fill="#E3D2B7" d="M191 550.063c2 .937 2 .937 3.125 3.996L195 557l1.753-.063c19.287-.607 29.544 2.244 43.935 15.313 5.245 4.675 9.133 7.233 16.41 6.984 8.316-.671 16.746-1.452 24.902-3.234l-1 2h-2v2c-8.013 1.306-15.94 2.232-24.062 2.375l-2.125.078c-6.639.026-10.248-2.875-14.82-7.293l-1.53-1.526c-8.83-8.737-16.19-12.827-28.854-12.764a184 184 0 0 0-5.869.225c-7.768.337-7.768.337-11.35-1.888-2.904-2.681-3.213-4.322-3.39-8.207 2-1 2-1 4-.937"/><path fill="#F3C06C" d="M3 415h1v197l-3-1q-.038-11.178-.055-22.357-.008-3.795-.02-7.591a5094 5094 0 0 1-.023-10.97l-.015-3.376c0-5.29.14-10.506.607-15.776.538-6.756.678-13.472.711-20.248l.03-3.818q.04-5.115.068-10.231.035-5.37.076-10.742.074-10.14.138-20.282.076-11.558.16-23.115Q2.846 438.747 3 415"/><path fill="#9C9C9C" d="m428 434 2 1v5l-5 2v2l3.375-.375c5.713-.02 10.277 2.851 14.625 6.375 1.29 2.203 1.29 2.203 2 4l-2 2h-3v-2l-1.75-.875a90 90 0 0 1-4.125-2.187c-8.888-3.922-21.029-2.911-29.992.195A76 76 0 0 0 396 455v-3l-2-2c8.375-4.976 15.203-7.4 25-7l1-3c1.848-1.605 1.848-1.605 4.063-3.187l2.222-1.606z"/><path fill="#DFDFDF" d="M302 146c2.763-.46 4.325-.649 7 0 3.072 2.304 5.493 5.104 8 8l1.957 2.172A147 147 0 0 1 327 166l1-18-4-2h10l-1 2h-2v27c-4.063-2.031-6.377-4.306-9.312-7.625l-1.457-1.618A803 803 0 0 1 316 161l-2.273-2.57A994 994 0 0 1 309 153l-1 20 2 1h-6l1-26-3-1z"/><path fill="#82714A" d="M291 128h-2v3h2v-2l5-1v3c-4.504 2.127-4.504 2.127-6.676 1.57-3.395-.833-6.781-.74-10.257-.76l-2.417-.025q-2.603-.026-5.207-.045-4.172-.034-8.344-.077-7.419-.074-14.838-.137-13.123-.113-26.245-.245l-2.855-.028c-17.063-.176-34.11-.609-51.161-1.253v-1c27.3-.635 54.6-1.142 81.904-1.55q4.916-.075 9.83-.155 5.857-.095 11.713-.177 2.181-.031 4.363-.069c2-.034 4.001-.06 6.002-.087l3.417-.051C288 127 288 127 291 128"/><path fill="#3B3022" d="M316 122c7.012-.605 7.012-.605 9.762 1.078 1.447 1.269 2.845 2.594 4.238 3.922l3 1 1-2h2v2l1.75-1.062c2.608-1.087 3.644-.869 6.25.062l-1 3 1 2c-2.606.93-3.642 1.15-6.25.063L336 131v2h-2v-3a556 556 0 0 0-3.937 2.375l-2.215 1.336c-1.986 1.166-1.986 1.166-2.848 3.289-9.043.79-9.043.79-12.875-2.375L310 132c-2.166-1.295-2.166-1.295-4-2v4h-2l-1-2-5 1v-3l-1-3c4 0 4 0 7 1v-3h2v4l7 1 1-2h2z"/><path fill="#A6A6A6" d="M351 349h4v75l-4 2z"/><path fill="#F2D9B4" d="M249 555c1.938 1.25 1.938 1.25 3 3 .469 3.748.155 4.767-2 8l16 1v3c-7.657 2.45-17.207 4.362-24.68.68-3.692-2.93-5.146-4.731-6.007-9.43.691-3.269.955-4.428 3.687-6.25 3.77-1.257 6.139-.827 10 0"/><path fill="#87684A" d="M602 7c2.813-.312 2.813-.312 6 0 2.642 2.818 2.983 4.86 3.438 8.688-.178 5.198-2.365 9.624-4.438 14.312l-1 3 7-14 8 1 1 7q-2.124 1.189-4.25 2.375l-2.39 1.336A163 163 0 0 1 609 34c3.205 0 3.973-.428 6.625-2 4.478-2.317 8.4-2.823 13.375-2 3.063 1.5 3.063 1.5 5 3l-1 2-2-1c-8.626-.863-17.166.43-24 6l-6-3 1.059-2.195c4.239-9.007 5.1-15.928 4.941-25.805-2.169.506-4 1-6 2z"/><path fill="#887750" d="M354.334 126.956c1.106.015 2.213.03 3.353.047l3.679.067 3.873.059q5.259.081 10.518.173 5.495.093 10.99.177 10.407.164 20.814.34 11.848.197 23.695.384 24.372.39 48.744.797v1q-25.269.463-50.539.886-11.733.195-23.466.41-10.228.19-20.456.354-5.415.086-10.83.191c-4.03.079-8.062.141-12.094.202l-3.619.079c-10.007.128-10.007.128-14.996-2.122 3.212-3.212 6.007-3.115 10.334-3.044"/><path fill="#C4A763" d="M560 5c7.424-.354 14.063-.141 20.086 4.664 3.937 4.033 5.91 7.55 6.125 13.227-.405 4.054-2.167 6.847-4.711 9.922-3.359 2.658-7.19 2.513-11.273 2.48-3.295-.434-4.992-1.918-7.227-4.293-1.42-2.84-1.315-4.855-1-8 1.688-2.375 1.688-2.375 4-4 2.625-.437 2.625-.437 5 0 2 3 2 3 1.813 5-.927 2.281-1.897 3.467-3.813 5h-2l2 3c3.312-.301 5.534-.685 8.313-2.562 2.77-4.002 2.93-7.974 2.468-12.665-.397-2.442-.397-2.442-1.781-5.773-4.063-2.749-10.174-3-15-3V6z"/><path fill="#A1A1A1" d="m267 343 2 1c-2.032 6.214-4.919 11.429-8.379 16.973-1.795 3.352-2.699 6.351-3.621 10.027l2.064.044c3.083.075 6.166.171 9.248.269l3.249.068 3.115.107 2.872.08c2.825.498 3.773 1.14 5.452 3.432v2l-32-1c0-12.176 5.78-22.593 14.215-31.281z"/><path fill="#F2BE60" d="M64 604h3l.262 1.723C68.302 611.439 69.657 615.98 74 620c3.115 2.03 6.277 3.856 9.55 5.617L86 627v1c-8.363.836-13.834-1.8-21-6l-1-1a321 321 0 0 0-10.098-1.162c-3.665-.41-5.78-.757-8.902-2.838v-2c.808-.11 1.616-.22 2.45-.332l3.237-.48 3.2-.458c3.272-.767 5.422-1.73 8.113-3.73 1.36-3.076 1.36-3.076 2-6"/><path fill="#070407" d="m13 617 1 9 4.438.438c4.437.437 4.437.437 5.562 1.562.375 2.375.375 2.375 0 5-4.05 3.289-7.807 3.374-12.812 3.188l-2.1-.042A384 384 0 0 1 4 636a671 671 0 0 1-.125-6.687l-.07-3.762C3.99 622.163 4.42 619.978 6 617c2.667-1.333 4.167-.671 7 0"/><path fill="#F2F2F2" d="M336 146h17v1h-9v26c9.244-.325 9.244-.325 14-3 3.207-4.81 3.533-8.402 3-14-1.688-3.713-4.03-6.234-7-9 4.013.28 5.72.758 8.813 3.438 3.342 3.915 3.47 6.31 3.406 11.312-.479 4.921-3.63 8.11-7.219 11.25-2.766.922-4.383 1.118-7.23 1.098l-2.432-.01-2.526-.025-2.56-.014q-3.126-.02-6.252-.049l2-1c-.08-4.126-.193-8.25-.312-12.375l-.069-3.562-.107-3.399-.08-3.142L339 148z"/><path fill="#EBEBEB" d="M250 146h5a6474 6474 0 0 1 4.5 12.375c.43 1.176.859 2.351 1.3 3.563l1.231 3.398 1.143 3.142C264 171 264 171 264 173l2 1h-9l2-1-3-10h-8c-1.802 3.83-2.196 6.781-2 11h-6l1.172-3.078c3.126-8.252 6.123-16.52 8.828-24.922"/><path fill="#070707" d="M209 240c3.748 2.082 4.795 3.295 6 7.438 0 3.933-.581 5.516-3 8.562-3.205 1.603-6.522 1.482-10 1-3.332-2.136-3.893-3.633-5-7.437 0-3.563 0-3.563 1.813-6.438 3.386-3.29 5.505-3.584 10.187-3.125"/><path fill="#E5B36A" d="M111 619h81v3h-80z"/><path fill="#170D0A" d="M316 581c3.428 1.532 6.1 3.564 9 5.938q2.495 2.035 5 4.062l2 1.879c1.995 1.413 1.995 1.413 4.465.555 2.726-1.542 4.81-3.235 7.098-5.371 2.72-2.523 5.43-4.888 8.437-7.063 2.468 1.152 4.048 2.048 6 4l-3.035 1.758c-6.79 3.975-13.233 7.79-18.965 13.242-3.618-1.288-6.243-2.797-9.187-5.25-4.67-3.75-9.617-6.789-14.813-9.75z"/><path fill="#F0D6B2" d="M391.438 582.625C395 583 395 583 397 584.688c1 2.312 1 2.312 1 4.812-1.32 3.3-3.073 4.549-6 6.5-5.225 1.742-10.676 1.807-15.812-.312-2.653-1.405-4.982-2.658-7.188-4.688v-2l18 1-1-5c2-2 2-2 5.438-2.375"/><path fill="#E4E4E4" d="M268 146h11v2l-3 1c-.081 2.73-.14 5.457-.187 8.188l-.077 2.33c-.06 4.667.223 7.69 3.264 11.482 2.448 1.224 3.734 1.016 6.438.75l2.37-.203c2.657-.663 3.495-1.423 5.192-3.547.459-2.07.459-2.07.398-4.344l.012-2.527-.035-2.629.035-2.629-.012-2.527-.01-2.307c-.276-2.487-.276-2.487-3.388-5.037h10l-3 3c-.421 2.022-.421 2.022-.336 4.238l-.039 2.487q0 2.57.023 5.14c-.08 4.328-.268 7.245-3.062 10.678-3.564 3.386-5.5 3.747-10.422 3.676-4.26-.43-7.879-1.834-10.845-5.03-1.545-2.564-1.67-3.985-1.612-6.955l.03-2.695.075-2.789.042-2.836q.053-3.458.146-6.914l-3-1z"/><path fill="#E3B561" d="M65 575c-3.592 26.777-3.592 26.777-11 33-2.187 1.188-2.187 1.188-4 2l1.426-2.5c4.878-9.05 7.189-17.34 8.574-27.5l-3.375.875c-3.194.813-6.378 1.437-9.625 2-6.44 1.258-11.948 3.915-17 8.125.232-3.138 1.174-4.183 3.375-6.5 6.933-5.365 15.71-6.925 24.191-8.105C60.438 575.929 62.015 575 65 575"/><path fill="#BCA459" d="M457 6h56c-2.13 4.262-2.777 5.164-7 7-5.11.568-9.375-.261-14.375-1.375C480.242 9.182 468.595 8.734 457 8z"/><path fill="#0B0B0B" d="M421.326 479.886q2.214 0 4.428.016l2.35.005c2.486.005 4.972.018 7.458.03q2.523.008 5.045.014 6.196.017 12.393.049a88 88 0 0 1 1 5c-1 1-1 1-4.326 1.114q-2.214 0-4.428-.016l-2.35-.005c-2.486-.005-4.972-.018-7.459-.03q-2.522-.008-5.044-.014-6.197-.017-12.393-.049a88 88 0 0 1-1-5c1-1 1-1 4.326-1.114"/><path fill="#323232" d="M549 607c3.224-.09 5.887.222 9 1l1-1a100 100 0 0 1 5 0l2 4-2 3 2 2c-.187 2-.187 2-1 4-3.82 2.546-4.59 1.802-9 1-3.335-.095-6.664-.06-10 0 .959-2.956 1.507-4.641 4.063-6.5 2.195-1.391 2.195-1.391 2.687-4.187L553 608c-3.118.646-3.118.646-4 3h-2z"/><path fill="#826547" d="M631.688 103.625c4.11 3.896 5.147 6.647 5.687 12.313-.122 4.293-1.512 6.812-4.375 10.062-3.899 2.318-7.531 2.479-12 2-3.39-2.137-4.726-3.177-6-7-.497-5.219-.497-5.219 0-8 2.188-2.562 2.188-2.562 5-4 3.423.16 4.563.563 7 3 .37 2.883.42 4.39-1.25 6.813C624 120 624 120 620 120l1-5h3v-2l-6 2c-.357 3.209-.237 4.64 1.563 7.375 2.425 1.943 2.425 1.943 5.875 1.625 3.94-1.106 5.912-1.868 8.562-5 .658-4.605.686-6.766-1.562-10.812-3.017-2.708-5.643-3.802-9.438-5.188v-1c3.891-1.65 5.585-.92 8.688 1.625"/><path fill="#BD9B4D" d="M581 67h1l.297 2.195C583.21 75.1 584.04 79.441 588 84l3 1-2-5h3c.93 1.566.93 1.566 1.875 3.563 1.168 2.04 1.168 2.04 3.125 3.437 4.442.335 8.624-.238 13-1v4l-5 2 9 2-2 2 1 2c-6.094-.155-10.034-1.256-15.027-4.75-2.02-1.28-3.819-1.933-6.098-2.625-4.561-1.574-7.354-4.568-9.875-8.625-1.145-3.25-1.103-6.326-1.062-9.75l.027-2.984z"/><path fill="#F3F3F3" d="M397 146h11l-2 1c2.653 7.603 2.653 7.603 8 13l.875-2.25C416 155 416 155 417.188 153c1.073-2.643.561-4.302-.188-7h9l-2.687 3.438c-4.96 6.69-8.941 12.131-8.684 20.714.242 2.088.242 2.088 2.371 3.848h-10l2-2c1.535-8.373-2.161-13.319-6.738-19.96-2.238-3.16-2.238-3.16-5.262-6.04"/><path fill="#434343" d="M518.438 606.438c3.558.78 4.576 2.62 6.562 5.562l2-4h1l1 5h2l1-5 2 1v11h-3l1-5h-4l1 6c-3-1-3-1-5-3l-1.687 2.063C520 622 520 622 517.375 622c-2.375-1-2.375-1-3.687-2.687-1.167-3.924-1.354-6.981.5-10.688C516 607 516 607 518.438 606.438"/><path fill="#9E9E9E" d="m372 435 3 2c-.903 6.895-8.435 11.945-13.535 16.031C347.67 463 347.67 463 341 463c.25-1.875.25-1.875 1-4 1.875-1.062 1.875-1.062 4-2l1.29-1.34c2.191-2.127 4.615-3.548 7.21-5.16 6.728-4.398 12.02-9.632 17.5-15.5"/><path fill="#A1A1A1" d="M419 476q7.82-.147 15.643-.22 2.662-.03 5.323-.082c2.549-.048 5.098-.071 7.647-.089l2.406-.062c5.486-.002 5.486-.002 7.978 2.29 1.378 2.97 1.475 4.925 1.003 8.163-2 2.375-2 2.375-4 4-2.052-3.462-2-4.594-2-9l-34-1z"/><path fill="#EBB86D" d="M96 636h160v3h-18v-1l-142-1z"/><path fill="#1A110C" d="m391.375 579.938 2.52.013q3.053.02 6.105.049l-1.937.313L396 581l-1 3h-7c-.553 2.076-1 3.844-1 6-7.63.349-13.924.002-21-3v-2a565 565 0 0 1 4.625-1.937l2.602-1.09c6.018-2.111 11.853-2.1 18.148-2.035"/><path fill="#19120D" d="M312.91 577.723 315 579c-1 3-1 3-4 5-2.187-.25-2.187-.25-5-1l-3.812-.937q-3.154-.799-6.305-1.602c-3.614-.914-7.22-1.774-10.883-2.461 9.844-8.438 17.252-6.491 27.91-.277"/><path fill="#AC8046" d="M623 58v3l-11 2c-.968 3.873-1.076 7.036-1 11h2l1.25-2c1.75-2 1.75-2 4.875-2.312C622 70 622 70 623 71c.235 5.53.235 5.53-1 8-2.992.933-5.878 1.239-9 1-3-2.375-3-2.375-5-5l-1-1c-.454-4.226-.4-7.954 1.125-11.937 4.07-4.478 9.15-4.292 14.875-4.063"/><path fill="#100907" d="M271 580c12.422-.277 22.874-.181 34 6-6.787 4.525-14.12 4.26-22 4v-5l-7-2v-2h-5z"/><path fill="#DEB573" d="M103 595c4.311 2.239 7.477 4.828 10 9 .663 5.21-.247 8.553-3 13l-2 1-3-3 2-3c.6-5.547.6-5.547-1.562-10.437-3.191-2.046-5.67-2.426-9.438-2.563l-3 2c.113 1.959.113 1.959 1 4 2.49 1.297 2.49 1.297 5 2v1c-6.408.363-6.408.363-8.937-1.187-1.526-2.602-1.7-3.841-1.063-6.813 4.166-4.687 7.758-6.348 14-5"/><path fill="#D1BF7F" d="m548 32 3 4 2-4 4 1-1.062 3.688c-.844 3.473-1.32 5.904.062 9.312 2.458 2.792 2.458 2.792 5 5l-5-1c1.928 3.568 3.538 5.866 7 8 3.033.786 3.033.786 6.25 1.188l3.266.48L575 60v2c-7.992.28-14.331-.524-20.434-6.094-2.373-2.888-3.506-6.007-4.714-9.515-.85-2.614-.85-2.614-2.727-5.641C546 38 546 38 546.813 34.625z"/><path fill="#130D09" d="M379.434 573.895c1.897.956 3.738 2.022 5.566 3.105-4.188 2.479-8.799 3.023-13.512 3.855-3.49.648-6.366 1.47-9.488 3.145-3.059-.37-4.352-1.234-7-3v-2q2.154-1.223 4.313-2.437l2.425-1.372c5.481-2.887 11.838-3.45 17.696-1.296"/><path fill="#946E40" d="M632 130h2v55h-1l-.136-2.041c-.82-11.997-1.655-23.804-4.278-35.557-.94-5.46-1.404-9.874 1.289-14.902z"/><path fill="#1A0903" d="M14.625 607.5c2.911.613 3.706 1.036 5.375 3.5l.688 3.5c.895 3.52.895 3.52 3.144 4.55q2.123.748 4.293 1.345C30 621 30 621 32 623c.345 4.053.302 5.548-2 9h-2l-1-3.375c-1.024-2.473-1.516-3.403-3.98-4.535-2.458-.622-2.458-.622-6.02-1.09l-.375-3.375c-.272-3.656-.272-3.656-2.625-5.625-2.323-.4-4.657-.74-7-1 4.25-4.857 4.25-4.857 7.625-5.5"/><path fill="#C4B676" d="M529 6v1l-3.312.75c-3.59.968-3.59.968-5.625 2.875-1.56 3.485-1.76 6.625-1.063 10.375 1.565 2.652 1.565 2.652 4 4 2.185.329 2.185.329 4-1 1.305-2.996 1.305-2.996 2-6h-2l-1 4h-4c.75-4.75.75-4.75 3-7 5.455.455 5.455.455 8 3 .5 3.161.261 4.58-1.437 7.313-3.773 2.484-7.17 2.486-11.563 1.687-2.87-1.794-4.491-2.983-6-6-.394-4.098-.234-6.514 1.563-10.25C519.049 6.816 523.605 3.626 529 6"/><path fill="#EBEBEB" d="M215 146h13c-3 2-3 2-5 2v24c10.357.03 10.357.03 15-4-1.875 4.875-1.875 4.875-3 6a63 63 0 0 1-4.254.098l-2.588-.01-2.72-.025-2.733-.014q-3.353-.018-6.705-.049l2-2c.371-2.52.371-2.52.414-5.445l.117-3.262.094-3.418.117-3.441q.142-4.216.258-8.434zM266 80c5.188 1.373 8.355 4.473 11 9 1.27 3.315 2.265 6.707 3.176 10.137 1.245 4.574 2.856 8.064 5.824 11.863 2.604 1.412 2.604 1.412 5 2v2c-3.27.458-5.856.808-8.66-1.172-5.094-5.472-7.005-12.291-9.074-19.324-1.602-5.277-3.57-8.41-7.266-12.504z"/><path fill="#EBB860" d="M52 588c-.523 4.903-2.001 8.184-4.562 12.375l-1.942 3.21L44 606l-2-8-6-1-1.687 2.313C32 602 32 602 29.437 603.5c-2.872 1.768-3.914 3.535-5.437 6.5l-1-2c5.463-9.332 14.803-16.53 25.203-19.664C50 588 50 588 52 588"/><path fill="#DAC8A9" d="M478 550c2.625.375 2.625.375 5 1-.062 2.75-.062 2.75-1 6-5.664 4.235-9.97 4.443-16.875 4.063-7.098-.362-12.5.309-19.125 2.937l-3 1v-2l-2-1c11.173-6.86 23.373-5.498 36-5l-.625-2.375L476 552z"/><path fill="#EAEAEA" d="M204 83h18v2l-7 1 .316 3.945c.766 13.602.766 13.602-2.25 17.653C210.11 109.523 207.581 111 204 111c1.03-2.217 2.082-4.109 3.563-6.062 2.872-3.872 2.542-7.465 2.5-12.126l-.028-3.855L210 86l-6-1z"/><path fill="#473C2B" d="M316 122h8l1 2h-2c-1.011 3.05-1.011 3.05 0 6l-4 1v6c-4 0-4 0-6.5-2.375L310 132c-2.166-1.295-2.166-1.295-4-2v4h-2l-1-2-5 1v-3l-1-3c4 0 4 0 7 1v-3h2v4l7 1 1-2h2z"/><path fill="#F5DCB1" d="M334 570c3.366 1.442 5.75 3.083 8 6 .126 4.645-2.934 8.686-6 12h-2c-3.033-3.094-5.88-6.282-6.187-10.687 1.563-3.045 3.654-5.04 6.187-7.313"/><path fill="#9E9E9E" d="m485 496 4 2q-.354 4.98-.719 9.96c-.192 2.673-.353 5.341-.5 8.017l-.219 3.773-.183 3.484C487 526 487 526 485 528h-3l-1 2q.465-6.282.938-12.562l.263-3.58c1.232-16.291 1.232-16.291 2.799-17.858"/><path fill="#949494" d="M257 371c3.875-.117 7.749-.187 11.625-.25l3.316-.102c6.348-.077 10.294-.021 15.059 4.352 3.705 4.875 4.573 8.522 4.34 14.621-.458 3.203-1.622 5.659-3.34 8.379-2.062-1.375-2.062-1.375-4-4-.009-2.59.325-5.021.703-7.582.33-2.68.072-4.834-.703-7.418l-3-1 2-1v-2l-2-1-1-1a96 96 0 0 0-5.129-.316l-3.135-.127-3.298-.12-3.311-.13q-4.064-.16-8.127-.307z"/><path fill="#F8BE59" d="M20 572h4v2l3-1c3.188.938 3.188.938 6 2l-3 1c-1.13 2.804-1.13 2.804-2 6l-1.125 2.313C25.609 588.2 25.841 591.946 26 596l-3-1c-2.978-6.398-4.022-11.488-2-18.437L22 574h-2z"/><path fill="#656565" d="M568 607h2v2l1.688-1c2.615-1.131 4.493-1.157 7.312-1l1 6c-4.75 4-4.75 4-7 4v2h7v2h-12z"/><path fill="#5E5E5E" d="M614.5 606.5c2.5.5 2.5.5 4.375 1.938 1.677 3.819 1.336 7.592.125 11.562-3 2-3 2-5.562 1.875C611 621 611 621 609.688 619.313c-1.167-3.924-1.354-6.981.5-10.688C612 607 612 607 614.5 606.5"/><path fill="#B2B2B2" d="m430 78 1 2h31v1h-31l-3 10a259 259 0 0 1-2.562 6.813l-1.254 3.207a241 241 0 0 1-2.336 5.68c-1.02 2.36-1.02 2.36-.848 5.3l7 1v2h-18v-2l8-1 .491-1.744c2.059-7.097 4.567-13.978 7.197-20.881A3843.462 3843.462 0 0 1 430 78"/><path fill="#F6DFBE" d="M278.5 582.75c3.5.25 3.5.25 5.5 2.25.27 2.688.087 5.291 0 8h2v2c-3.043.73-5.867 1.21-9 1-2.72-1.704-3.375-3.074-5-6 .112-4.914 1.472-6.89 6.5-7.25"/><path fill="#DCB370" d="M33.188 527.5c5.004.656 7.463 2.848 10.812 6.5 2.156 4.313 1.303 9.02-.062 13.438C42 550 42 550 38.5 551.063 35 551 35 551 33.063 550c-1.59-2.99-1.25-5.68-1.063-9l.875 1.875c1.062 2.258 1.062 2.258 3.125 4.125 2.083-.167 2.083-.167 4-1 1.444-2.889 1.377-4.796 1-8-3.785-4.501-7.186-7.057-13-8 2-2 2-2 5.188-2.5"/><path fill="#9D9D9D" d="M466.484 427.719c4.812 2.002 8.123 4.34 11.516 8.281l-2 1v3l-4.98-3.71c-4.34-2.77-8.229-3.579-13.332-3.915l-3.239-.227L452 432v-4c4.349-2.174 9.92-1.602 14.484-.281"/><path fill="#D1C5B9" d="M306 549c6.085 2.977 10.154 7.926 13 14v2h-2c-1.29-1.68-1.29-1.68-2.625-3.875l-1.352-2.18C312 557 312 557 312 555l-1.875-.937L306 552c-11.42-1.48-20.95 6.355-29.836 12.66-3.358 2.34-6.053 3.927-10.164 4.34v-2l-2-1 1.59-.27c8.236-1.904 14.563-6.47 21.457-11.136 6.175-4.128 11.405-7.142 18.953-5.594"/><path fill="#5A5A5A" d="M602.563 606.625 605 607c2.065 3.098 2.295 3.954 2.313 7.5l.05 2.344c-.449 2.667-1.204 3.567-3.363 5.156-3.342-.245-4.605-.605-7-3-.3-2.059-.3-2.059-.312-4.437l-.051-2.372c.612-3.694 2.298-5.035 5.926-5.566"/><path fill="#EAD3B1" d="m306 583 5 1v3l-1.758.48c-3.997 1.194-7.297 2.26-10.43 5.082-5.756 4.99-11.56 4.696-18.812 4.438 3-2 3-2 6-2v-2h-2l-1-3 3.29-.402 4.335-.535 2.16-.264A246 246 0 0 0 305 587z"/><path fill="#9D9D9D" d="M210 235c3 1.5 3 1.5 5 3l-1 5-2.125-1c-3.304-1.15-5.404-1.506-8.875-1-2.687 2.27-2.687 2.27-5 5a97 97 0 0 1-4 3l-1-1c.167-4.344.574-6.484 3.375-9.875 4.199-3.4 8.369-3.739 13.625-3.125"/><path fill="#E3B465" d="M67 613h2l1.875 3.063c3.177 4.74 7.746 6.902 12.676 9.554L86 627v1c-8.406.84-13.76-1.884-21-6 0-7 0-7 2-9"/><path fill="#DDB66B" d="M86 566h2c3.063 4.594 2.464 9.602 1.465 14.766A204 204 0 0 1 87 590l-.984 3.402c-1.934 6.255-1.934 6.255-3.016 8.598l-3 1c-1.355-4.064.254-6.337 1.875-10.062C85.529 584.032 85.978 575.535 86 566"/><path fill="#E7E7E7" d="M354 147c4.013.28 5.72.758 8.813 3.438 3.342 3.915 3.47 6.31 3.406 11.312-.479 4.921-3.63 8.11-7.219 11.25-3.015 1.005-5.042 1.103-8.187 1.063l-2.731-.028L346 174v-1l2.047-.297c5.627-.896 5.627-.896 10.515-3.64 2.817-4.042 2.962-8.289 2.438-13.063-1.688-3.713-4.03-6.234-7-9"/><path fill="#896842" d="m626.16 18.902 3.903.035 3.91.028L637 19l1 4h-9l1.898.516 2.477.734 2.46.703c2.623 1.268 3.159 2.371 4.165 5.047-3.374 1.118-4.744 1.108-8.078-.293l-3.172-1.895-3.203-1.855C623 24 623 24 622.078 21.824L622 20c1-1 1-1 4.16-1.098"/><path fill="#866B46" d="m620 40-2 1c-.633 1.984-.991 3.952-1.36 6-.71 3.637-1.34 5.656-3.827 8.5-3.576 1.907-5.811 2.01-9.813 1.5-2.437-1.5-2.437-1.5-4-3l1-2 1.625 1.563c2.359 1.725 2.359 1.725 5.5 1.312 3.172-.633 3.172-.633 4.875-3.875-.312-2.646-.312-2.646-1-5l-5-1v2h3l-1 4-4-1c-1.125-4.75-1.125-4.75 0-7 3.557-.85 5.493-1.17 9 0v-2c2.463-1.231 4.28-1.072 7-1"/><path fill="#231008" d="m622 21 2 1v2q2.625 1.439 5.25 2.875l2.953 1.617A199 199 0 0 0 639 32l-3 1-1 6-3 1v2h-2l1-3 2-1v-5c-4.407-2.455-8.037-2.77-13-2-3.809 1.409-7.404 3.118-11 5v-2c1.355-1.219 1.355-1.219 3.188-2.5l1.925-1.348C616 29 616 29 618.875 28.062c.701-.35 1.403-.7 2.125-1.062.898-3.053.898-3.053 1-6"/><path fill="#EAD7B6" d="M371 570c6.277-.837 9.71 1.322 15.066 4.465 4.439 2.323 9.064 3.461 13.934 4.535v1l-3.586.184c-8.163.429-16.288.899-24.414 1.816l-1-2 12-3c-3.938-2.317-7.692-4.434-12-6z"/><path fill="#E3B764" d="M96 544c-1.569 3.572-3.748 6.271-6.25 9.25A280 280 0 0 0 79 567l-2-4h-3l-2-1 2.527-1.906c6.157-4.674 12.122-9.397 17.766-14.696C94 544 94 544 96 544"/><path fill="#E8D4AC" d="M371.313 580.875 373 582c-2.62 1.746-4.038 2.387-7 3v2l5 1-3 2-2.797-1.059c-3.216-1.29-3.216-1.29-6.344.211l-3.109 1.785A114 114 0 0 1 350 594l-2-1c2.195-4.511 4.412-6.063 9-8v-2l3.188-.375c3.706-.444 3.706-.444 6.5-1.812 2.312-.813 2.312-.813 4.625.062"/><path fill="#A57743" d="m613 19 8 1 1 7q-2.124 1.189-4.25 2.375l-2.39 1.336A163 163 0 0 1 609 34l1-3-2 1c1.418-4.472 3.113-8.711 5-13"/><path fill="#CFCFCF" d="M382 35h16v2l-3.062.258c-4.047 1.166-5.35 3.436-7.438 6.984a367 367 0 0 0-3.5 6.633q-1.749 3.277-3.5 6.555l-1.723 3.268C375.988 65.88 373.005 70.941 370 76l-2-2 1.313-2.276 11.954-20.718q1.534-2.665 3.084-5.322c1.665-2.867 3.12-5.376 3.649-8.684h-6z"/><path fill="#180E0B" d="M338 569c3.239 1.444 5.62 3.258 8.25 5.625l2.14 1.914L350 578c-1.412 3.359-3.034 5.133-5.937 7.313l-2.09 1.613L340 588l-3-1c1.074-2.915 1.778-4.778 4-7-.227-2.957-.612-4.55-2.562-6.812L337 572z"/><path fill="#060606" d="M377 147c3.375.313 3.375.313 7 1 2.313 3.47 2.34 4.925 2 9l-2 3c-3.625.188-3.625.188-7 0z"/><path fill="#E5E5E5" d="m206 39 2.09.84c2.877 1.277 4.631 2.439 5.781 5.414.511 2.252.889 4.45 1.129 6.746h-2l-1.687-2.625c-3.904-6.07-8.972-9.94-15.93-11.898-8.874-1.775-14.659-.008-22.383 4.523l-2 1c.563-2.312.563-2.312 2-5 10.397-5.5 22.792-4.395 33 1"/><path fill="#D4B054" d="m14 614 3 2c.188 3.625.188 3.625 0 7l2.688-.312C23 623 23 623 25.813 625.188c2.175 2.797 2.889 4.335 3.187 7.812-1.875-.25-1.875-.25-4-1l-.848-2.004c-.965-2.214-.965-2.214-3.28-2.57l-2.434-.114c-4.37-.244-4.37-.244-5.438-1.312a62 62 0 0 1-.125-4.375l-.008-2.398C13 617 13 617 14 614"/><path fill="#1D1109" d="M58 601c.625 1.813.625 1.813 1 4l-2 3 5 2c-4.775 5.529-11.16 5.495-18 6v-2l4-1 1-4h-2c1.442-2.884 3.706-4.765 6-7l2 1-4 6c3.243-2.39 5.509-4.205 7-8"/><path fill="#E8BB64" d="M81 599h1l.262 2.45c.88 6.718.88 6.718 3.8 12.737 3.92 2.42 7.397 2.704 11.938 2.813v1l-9 1 1 3c-4.44-1.395-6.905-3.561-10-7-1.294-2.588-1.168-4.55-1.187-7.437l-.043-2.934C79 602 79 602 81 599"/><path fill="#A5A5A5" d="M286 239h2v24h-6l1-3c.123-1.457.2-2.918.246-4.379l.1-2.54q.091-2.649.172-5.298l.103-2.537.076-2.322C284 241 284 241 286 239"/><path fill="#F5C361" d="M2 624h1c.984 4.058 1.04 7.835 1 12q3.595-.173 7.188-.375c.673-.03 1.347-.062 2.04-.094 3.969-.232 7.18-.815 10.772-2.531v2l-2 2-1.363 1.605c-2.602 2.217-4.92 1.736-8.207 1.633C8.806 639.883 5.494 639.016 2 638l1-4H1q-.04-2.22-.062-4.437l-.036-2.497C1 625 1 625 2 624"/><path fill="#9D8650" d="M592 23h5l-4 1v2h8l-.437 2.063c-.632 3.3-1.106 6.608-1.563 9.937l-6 1-1-2h6l-2-6c-2.354-.688-2.354-.688-5-1-3.126 1.605-3.126 1.605-3.512 3.945l-.176 2.18L587 40l-2-1c-.326-4.162-.407-6.363 1.875-9.937C589 27 589 27 591 27z"/><path fill="#C4B9AC" d="M372 549c5.453 2.178 11.057 4.519 15 9l-2 1a109 109 0 0 1-5.562-3.437c-4.512-2.68-8.019-4.731-13.34-4.239-5.163 1.663-8.68 5.345-11.45 9.899-2.16 4.529-3.224 8.793-3.648 13.777h-1c-.609-7.55.708-12.7 5-19 5.004-5.305 9.48-8.271 17-7"/><path fill="#200401" d="M21 448h1v80l4 1-5 4z"/><path fill="#140909" d="M352 581c2.468 1.152 4.048 2.048 6 4l-3.176 1.898-6.228 3.727c-.667.4-1.334.8-2.022 1.21-.612.368-1.225.734-1.856 1.112-1.597.979-3.16 2.014-4.718 3.053v-2l-2-1q2.372-2.16 4.75-4.312l2.672-2.426A88 88 0 0 1 352 581"/><path fill="#C9B49E" d="M191 550.063c2 .937 2 .937 3.25 4L195 557h9v2h10v1c-3.206.286-6.414.522-9.625.75l-2.738.246c-7.574.498-7.574.498-11.23-1.777-2.917-2.69-3.23-4.32-3.407-8.219 2-1 2-1 4-.937"/><path fill="#D3C46F" d="M563 6c-1.252 3.756-2.862 4.1-6.215 5.89-3.186 1.98-5.131 4.802-6.785 8.11h-2l-1 2 1-5-3-1c5.388-6.758 8.828-10.54 18-10"/><path fill="#140000" d="m111 614 1 4 2.865-.051q13.353-.239 26.707-.444 6.865-.104 13.731-.229 6.622-.119 13.247-.214 2.529-.039 5.058-.088c2.358-.046 4.716-.08 7.075-.11.7-.016 1.4-.032 2.12-.05 3.656-.032 5.06.094 8.197 2.186h-83z"/><path fill="#241207" d="M13 617v11l-4-2 2-1v-3c-2.627.787-2.627.787-5 3-.76 3.322-.93 6.6-1 10l1.672-.527c2.693-.547 4.854-.358 7.578-.035l2.703.308L19 635v1H4c-.275-14.712-.275-14.712 2-19 2-1 2-1 7 0"/><path fill="#F9F9F9" d="M372 147h4c.627 7.67 1.13 15.197.742 22.89L377 172l3 2h-9l1-2c.085-1.886.107-3.776.098-5.664l-.01-3.399-.026-3.562-.013-3.586q-.018-4.395-.049-8.789"/><path fill="#9B7138" d="m624 93-1 2h2v4c1.417 1.751 1.417 1.751 3 3-6.205-.483-12-1.333-18-3 1.016-2.789 1.573-3.8 4.313-5.082l2.687-.73 2.688-.77C622 92 622 92 624 93"/><path fill="#535353" d="M587.688 606.75 590 607l1 3h-2v-2l-3 1-1 3 5 1c.688 2.813.688 2.813 1 6-1.187 1.938-1.187 1.938-3 3-2.062-.125-2.062-.125-4-1-2.473-3.71-2.385-5.61-2-10 1.551-3.184 2.122-3.918 5.688-4.25"/><path fill="#B8B8B8" d="m521 608 4 4 2-4h1l1 5h2l1-5 2 1v11h-3l1-5h-4l1 6c-3-1-3-1-5-3l-2 3-2-1 1-2a95 95 0 0 0 .063-5.125l-.028-2.758z"/><path fill="#B09D63" d="M560 5c7.424-.354 14.063-.141 20.086 4.664 4.162 4.264 5.71 7.7 5.941 13.649L586 25c-4.746-2.542-6.274-7.162-8-12v-2c-4.818-2.259-9.682-3-15-3V6z"/><path fill="#CCA658" d="M581 18c2.063 2.063 2.063 2.063 4 5 0 4.046-.355 6.183-2.875 9.375-3.251 2.486-5.849 2.745-9.812 2.688l-2.45-.028L568 35v-2l1.863-.445c5.373-1.445 5.373-1.445 9.137-5.367.964-3.074 1.62-5.991 2-9.188"/><path fill="#E0E0E0" d="M369 146a364 364 0 0 1 7.125-.25l2.016-.102c5.11-.1 8.027.99 11.859 4.352 1.146 3.063.585 4.65 0 8-2.5 2-2.5 2-5 3l-1-2 1-2c.248-4.145.248-4.145-1-8a129 129 0 0 0-7-2v13h-1v-13l-5 1z"/><path fill="#90714D" d="M621.5 56.719c5.037.566 7.724 2.505 11.25 6.031 2.467 3.564 3.33 6.071 4.25 10.25l-3-1-1.437-3.437c-1.171-3.52-1.171-3.52-3.317-4.77-2.694-.951-4.892-1.059-7.746-1.043l-2.844-.016c-2.696.27-4.345.893-6.656 2.266v-3l11-2v-1c-4.161-.082-7.947.018-12 1 3.098-3.814 5.848-3.444 10.5-3.281"/><path fill="#E3E3E3" d="M397 146h11l-2 1c1.857 4.42 3.813 8.73 6 13l-3 3-1.863-2.957-2.45-3.856-1.224-1.947-1.201-1.885c-.362-.57-.723-1.141-1.095-1.73-1.343-1.964-1.343-1.964-4.167-4.625"/><path fill="#D2AC68" d="m64.688 550.5 2.105-.018c1.969.05 1.969.05 5.207.518l2 3-2.5-.176C61.397 553.43 53.414 555.577 44 559l-1-3c7.322-3.51 13.599-5.493 21.688-5.5"/><path fill="#DFDFDF" d="M305 148c4 4 4 4 4.362 6.382l-.19 2.602-.176 2.832-.246 2.934c-.066.984-.131 1.967-.2 2.98A478 478 0 0 1 308 173l2 1h-6z"/><path fill="#8C754F" d="M602 7c2.813-.312 2.813-.312 6 0 2.642 2.818 2.983 4.86 3.438 8.688-.3 7.537-4.051 14.359-8.438 20.312l-1-2c.742-1.734.742-1.734 1.875-3.75C607.464 23.332 607.122 16.643 607 9c-2.169.506-4 1-6 2z"/><path fill="#D8C4A8" d="M466 557v3l-3.254.332-4.308.48-2.135.213c-4.935.569-8.821 1.826-13.303 3.975v-2l-2-1c8.553-4.315 15.445-5.694 25-5"/><path fill="#0E0604" d="m39.188 575.813 2.73.082L44 576l1 2h-3l-1 3c-1.848 1.168-1.848 1.168-4.062 2.188l-2.223 1.042L33 585l-3-4c2.238-4.476 4.225-5.38 9.188-5.187"/><path fill="#C1AE6D" d="M529 6v1l-3.312.75c-3.59.968-3.59.968-5.625 2.875-1.96 4.38-1.573 8.846-.063 13.375h-2v-2l-3 1c-1.555-3.11-1.286-5.563-1-9 1.863-3.875 3.652-6.109 7.5-7.937C526.022 4.69 526.022 4.69 529 6"/><path fill="#645953" d="M334 564c4.54 1.424 7.04 3.721 10.313 7.125l2.675 2.758L349 576c-3 0-3 0-4.605-1.312L342.813 573l-1.606-1.687L340 570c-3.793 1.002-6.715 1.81-10 4l-2-3z"/><path fill="#524B3E" d="m325 124 8 4 1-2h2v2l1.75-1.062c2.608-1.087 3.644-.869 6.25.062l-1 3 1 2c-2.606.93-3.642 1.15-6.25.063L336 131v2h-2v-3l-2.375 1.563L329 133l-2-1 2-3-2-1.375-2-1.625z"/><path fill="#5A5A5A" d="m482 614 3 2h3c3 0 3 0 6 2l-1 5c-8.571.286-8.571.286-12-2 1-2 1-2 3-3z"/><path fill="#B9AC71" d="m554 47 .688 1.625c2.174 3.935 4.634 7.396 8.562 9.688 3.88.97 7.77 1.357 11.75 1.687v2c-8.248.29-14.363-.666-20.613-6.41-1.871-2.145-2.466-3.746-2.387-6.59z"/><path fill="#9B9B9B" d="M354 317c4.285 2.307 7.723 4.33 11 8l-3 3c-2.869-1.383-5.56-2.921-8.25-4.625l-2.14-1.352L350 321l3-1z"/><path fill="#F1BC5F" d="M1 384h3v31l-2 1z"/><path fill="#DCDCDC" d="M423 98c1.132 3.396.897 3.868-.437 7-1.13 2.674-1.563 4.025-1.563 7l7 1v2h-18v-2l8-1 .586-2.047.789-2.703.773-2.672c.773-2.339 1.688-4.412 2.852-6.578"/><path fill="#989898" d="M263 320c0 3 0 3-2 5.188L259 327h2c-1.583 4.274-4.506 6.265-8 9l-1-3-4 2c4.548-5.598 9.523-10.314 15-15"/><path fill="#E8B667" d="M67 582c4.298 6.447.808 16.75-.598 24.016L66 608c-2.479-3.766-2.086-6.92-1.75-11.312l.266-3.864c.486-3.838 1.324-7.148 2.484-10.824"/><path fill="#D8B45E" d="m50 579-1 1 3 2-1.906.297c-7.66 1.338-14.06 3.675-20.094 8.703.232-3.138 1.174-4.183 3.375-6.5 3.897-3.06 11.876-7.874 16.625-5.5"/><path fill="#F2F2F2" d="M290 146h10l-3 3c-.453 2.07-.453 2.07-.406 4.344l-.067 2.527-.027 2.629a325 325 0 0 1-.094 5.156l-.021 2.307c-.477 2.524-1.443 3.42-3.385 5.037l.048-1.972c.062-2.947.101-5.893.14-8.84l.076-3.104.029-2.979.048-2.745c-.161-2.779-.161-2.779-3.341-5.36"/><path fill="#150904" d="M606 44c2.5.188 2.5.188 5 1 2 3 2 3 1.875 5.5-1.068 3.052-2.013 4.028-4.875 5.5-2.25-.312-2.25-.312-4-1 .313-1.937.313-1.937 1-4l3-1 1-3-3 1-2-2z"/><path fill="#9F9F9F" d="m372 435 3 2c-.57 3.626-1.924 5.255-4.562 7.75l-1.942 1.86L367 448l-2-2c0-3.869 1.438-5.688 4.063-8.312z"/><path fill="#A0A0A0" d="M364 325c3.824 1.558 6.292 3.916 9 7v3h-2l-1 2-8-8z"/><path fill="#E6B45E" d="m4 618 2 1-2 10-2-4-1 9h2l1 5h6v1H0q-.04-4.156-.062-8.312l-.026-2.381-.01-2.295-.016-2.11C0 623 0 623 1 620z"/><path fill="#1E0E0A" d="M28 620.313C30 621 30 621 32 623c.345 4.053.302 5.548-2 9h-2l-1.375-3.437c-1.196-3.61-1.196-3.61-3.625-4.563l1-3c2-1 2-1 4-.687"/><path fill="#E0B460" d="M110 604h3c.314 5.236-.224 8.515-3 13l-2 1-3-3 2-3c.39-1.99.732-3.99 1-6h2z"/><path fill="#CCB079" d="m58 588 1 4h2l1-2c-.865 7.278-2.659 12.786-8 18-2.195 1.219-2.195 1.219-4 2l1.496-2.781c4.841-9.123 4.841-9.123 6.504-19.219"/><path fill="#936E45" d="M625 110c2 2 2 2 2.313 4.438C627 117 627 117 625.75 118.812 624 120 624 120 620 120l1-5h3v-2h-5l-1-3c2.706-1.353 4.133-.788 7 0"/><path fill="#AA824A" d="m596 89 4 1-1 2 1.688-.625c3.013-.489 4.527.431 7.312 1.625 1.992.376 3.992.72 6 1l-2 2 1 2c-6.54-.167-12.1-1.38-17-6z"/><path fill="#F7DAB1" d="m283 587 1 6h2v2l-9 1-2-3c1.271-3.814 3.81-6 8-6"/><path fill="#D8D8D8" d="M205 111c-4.182 4.182-9.17 5.377-14.96 5.41l-2.04-.035-2.04.035c-5.07-.03-8.502-1.216-12.96-3.41l3-2c1.952.728 3.902 1.462 5.832 2.246 6.735 2.342 11.81.403 17.969-2.469C202 110 202 110 205 111"/><path fill="#E6D798" d="M457 7h34v3l-3.121-.184-2.063-.12-9.342-.55L474 9l-11.816-.695-2.063-.121L457 8z"/><path fill="#EDD6B3" d="M334 570c3.366 1.442 5.75 3.083 8 6-.25 2.75-.25 2.75-1 5l-3-1v-2l-3-2v-2l-2.375 1.438c-1.514.901-3.049 1.774-4.625 2.562 1.443-3.366 3.333-5.51 6-8"/><path fill="#F2DAB4" d="M426 555c0 3 0 3-1 6h-2l-1 4-4-1c-.362-5.429-.362-5.429 1.188-7.875 2.372-1.473 4.071-1.347 6.812-1.125"/><path fill="#B9A55F" d="m561 50 3 1c1.335.08 2.674.108 4.012.098l2.295-.01 2.38-.026 2.417-.013q2.947-.02 5.896-.049l-1 3c-7.387 2.756-14.972.791-22-2z"/><path fill="#1A0D08" d="M72 618c2.763.474 5.06 1.027 7.625 2.188L82 621l3-2 3 3-2 5c-5.596-1.399-9.703-4.26-14-8z"/><path fill="#D8CEBF" d="M386 558c3.303 1.172 6.231 2.682 9.25 4.438 4.418 2.51 8.882 4.147 13.75 5.562l-1 3c-8.03-2.141-14.404-5.957-21-11z"/><path fill="#979797" d="m192 245 2 3 2-2 4 10-4 3c-3.927-4.91-4.432-7.74-4-14"/><path fill="#906C40" d="m611 0 3 1c.95 2.328.95 2.328 1.688 5.25.25.954.502 1.908.761 2.89.521 2.706.656 5.114.551 7.86-2.874-1.437-3.342-3.367-4.687-6.25l-1.387-2.89c-1.015-3.134-.863-4.747.074-7.86"/><path fill="#0E0602" d="M60 598c2 1.063 2 1.063 4 3 .522 5.955.522 5.955-1 9h-8l1-3h2z"/><path fill="#D8D8D8" d="M417 146h9l-1.172 1.504c-3.33 4.345-6.22 8.682-8.828 13.496l-2-1c.947-2.436 1.851-4.75 3.188-7 1.073-2.643.561-4.302-.188-7m-5 14 2 1-2 1z"/><path fill="#CAAB59" d="m590 56 2 2c-.207 1.79-.427 3.58-.707 5.36-.612 5.516-.363 11.097-.293 16.64h-2c-1.221-3.664-1.184-7.06-1.187-10.875l-.038-2.145c-.011-4.114.39-7.282 2.225-10.98"/><path fill="#B0B0B0" d="M538 607c2.375-.125 2.375-.125 5 0 2 2 2 2 2 4.375-1.396 3.664-3.677 4.716-7 6.625l7 1v2h-9c.417-4.87 2.545-6.722 6-10v-2h-3l-2 2z"/><path fill="#9F7D32" d="M623 58v3l-2.336.262-3.039.425-3.023.387c-2.846.681-2.846.681-3.954 3.508L610 68c-2-2-2-2-2.062-4.437C609 61 609 61 612.125 59.187c3.652-1.346 6.989-1.425 10.875-1.187"/><path fill="#29120A" d="M14.625 607.5c2.772.584 3.753 1.195 5.375 3.5v3l-3-1-2 2-1-1a236 236 0 0 0-7-1c4.25-4.857 4.25-4.857 7.625-5.5"/><path fill="#B5B5B5" d="M624 607a100 100 0 0 1 5 0c1 1 1 1 1.438 3.25-.668 4.199-3.069 5.293-6.438 7.75l7 2v1h-9c.25-2.312.25-2.312 1-5l4-3c.804-2.599.804-2.599 1-5h-3l-1 3h-2z"/><path fill="#22160D" d="m435 563 4 2a664 664 0 0 1-4.75 4.438l-2.672 2.496c-2.364 1.894-3.593 2.86-6.578 3.066-2.25-1.437-2.25-1.437-4-3l3.688-1.25c4.278-1.6 8.19-3.507 10.312-7.75"/><path fill="#847050" d="M614 43c2 3 2 3 1.938 6.438C615 53 615 53 612.875 55.438 609.262 57.4 607.06 57.517 603 57c-2.437-1.5-2.437-1.5-4-3l1-2 1.625 1.563c2.359 1.725 2.359 1.725 5.5 1.312 3.172-.633 3.172-.633 4.875-3.875q.543-3.495 1-7z"/><path fill="#8F6A39" d="M627 24c9.595.595 9.595.595 13 4l-1 3c-4.361-.507-7.45-1.363-11-4z"/><path fill="#E8BC69" d="m31 619 4 2c.473 8.193.473 8.193-1.5 11.563L32 634l-3-1 .992-1.672c1.176-2.716 1.21-4.634 1.133-7.578l-.055-2.703z"/><path fill="#251708" d="m31 577 2 1-2 3c.802 2.671.802 2.671 2 5-3 2-3 2-6 2l-1 6h-1c-.52-6.103.887-10.705 4-16z"/><path fill="#1D1005" d="M64 586h1v14l-4 1c-1.229-3.515-.753-5.684.375-9.187l.836-2.668C63 587 63 587 64 586"/><path fill="#140B08" d="m327 572 3 1c-1.498 3.112-3.2 6.053-5 9-2.867-.573-3.861-.861-6-3 1.26-1.2 2.533-2.384 3.813-3.562l2.144-2.004z"/><path fill="#9D9D9D" d="M283 438c6.75 1.625 6.75 1.625 9 5v3c-3.558-.61-6.683-1.578-10-3z"/><path fill="#67573C" d="M316 122h8l1 2h-2c-1.011 3.05-1.011 3.05 0 6l-4 1c-3-4.5-3-4.5-3-9"/><path fill="#2B1E14" d="M591 29c4.75.75 4.75.75 7 3 .125 2.625.125 2.625 0 5-3.01.934-3.867 1.044-7 0z"/><path fill="#0D0D0D" d="m580 610 2 1c.414 2.066.414 2.066.625 4.563l.227 2.503L583 620l-3 1v-2h-7v-2l2.938-1.937c3.305-1.774 3.305-1.774 4.062-5.063"/><path fill="#D9AD65" d="M12 554c2.957 3.467 5.078 6.869 7 11l-3 1v2h-2c-1.97-4.927-2.18-8.78-2-14"/><path fill="#EDEDED" d="M266 80c4.428 1.392 7.152 3.315 10 7-.187 3.313-.187 3.313-1 6h-2l-.77-1.645-1.043-2.168-1.019-2.144c-1.082-2.1-1.082-2.1-2.805-3.68L266 82z"/><path fill="#E5CE7E" d="M548 20c1.231 3.693.872 6.88.563 10.688l-.159 2.126Q548.208 35.408 548 38l-3-1c-1.12-2.891-1.108-5.678-1.062-8.75l.027-2.422L544 24h3z"/><path fill="#846544" d="m619 2 3 1c.212 5.192-.409 9.127-2 14l-2-1q-.04-3.22-.062-6.437l-.036-3.622C618 3 618 3 619 2"/><path fill="#F9C15F" d="M24 631c2.438.688 2.438.688 5 2 .875 2.563.875 2.563 1 5-1 1-1 1-2.848 1.098L21 639l-1-3 4-1z"/><path fill="#2E1E0D" d="M62 610c-4.775 5.529-11.16 5.495-18 6v-2l3.375-.312L51 613l2-3c3.491-2.528 5.268-1.866 9 0"/><path fill="#E8D7AA" d="M391.563 582.938 395 583l2 4c-2.405 1.203-3.95 1.1-6.625 1.063l-2.477-.028L386 588c1.126-4.985 1.126-4.985 5.563-5.062"/><path fill="#D0C3AE" d="m282 558 2 1a1746 1746 0 0 1-5.25 3.875l-2.953 2.18C270.124 569 270.124 569 266 569v-2l-2-1 1.906-.48c5.495-1.498 9.856-3.317 14.5-6.63z"/><path fill="#E9C069" d="m44 558-1 2c-3.285 1.095-5.737 1.1-9.187 1.063l-3.293-.028L28 561l-1-3q3.124-.292 6.25-.562l3.516-.317c2.753-.103 4.654.017 7.234.879"/><path fill="#9E9E9E" d="M355 343c2.908 2.22 4.953 3.93 7 7-.25 2.125-.25 2.125-1 4l-2 1c-5.06-6.074-5.06-6.074-4.812-9.937z"/><path fill="#999" d="M373 333c2.5 2.313 2.5 2.313 5 5 0 3.106-.54 4.353-2 7-5-5.5-5-5.5-5-10h2z"/><path fill="#D9AA59" d="m84 613 1.938 1.438C89.922 616.47 93.585 616.72 98 617v1l-9 1 1 3c-3.937-1.312-6.227-2.92-9-6z"/><path fill="#220E04" d="M57 574v3l-15 3v-2c4.494-4.161 9.111-4.137 15-4"/><path fill="#B7B7B7" d="M559 607h5l2 4-2 3 2 2c-.375 2.125-.375 2.125-1 4h-3l.125-2.375c.162-2.786.162-2.786-2.125-4.625l2-1c.652-2.025.652-2.025 1-4h-3l-1 3h-2z"/><path fill="#9D9D9D" d="M436.563 431.813C439 433 439 433 440 435l-10 4-1-4c2.272-2.921 3.89-4.352 7.563-3.187"/><path fill="#A4A4A4" d="m252 332 2 2c-3.446 6.77-3.446 6.77-6.25 7.938L246 342l-1-4z"/><path fill="#DDD2B0" d="M443 563c-1.99 4.519-4.981 7.214-9 10-2.937.875-2.937.875-5 1 8.992-11 8.992-11 14-11"/><path fill="#E3D4B1" d="M193 551c1.125 4.75 1.125 4.75 0 7l-5-1-1-6c2.49-1.245 3.41-.777 6 0"/><path fill="#816346" d="m617 111 3 3-2 1c-.412 3.603-.154 4.784 2 7.813l2 2.187h-2l-1 2c-2.665-2.434-3.852-4.264-4.168-7.973-.019-2.01.072-4.02.168-6.027z"/><path fill="#CBA65E" d="m14 614 3 2c.313 3.5.313 3.5 0 7l-2 2 6 1v1q-3.5.062-7 0c-1-1-1-1-1.133-2.96l.008-2.415-.008-2.398C13 617 13 617 14 614"/><path fill="#090909" d="m480 607 3 1-.687 2.688c-.368 3.89.418 5.226 2.687 8.312h-4c-2.066-2.582-2.93-4.397-3.312-7.687C478 609 478 609 480 607"/><path fill="#B99356" d="M86 566h2c2.6 3.9 2.15 7.474 2 12l-2-1-2 4z"/><path fill="#E8E8E8" d="M204 40c3.336.556 6.154 1.134 9 3 .828 2.164.828 2.164 1.25 4.625l.453 2.477L215 52h-2a124 124 0 0 1-2.848-4.266C208.315 44.97 206.16 42.518 204 40"/><path fill="#270E07" d="M640 18v10q-2.659-.93-5.312-1.875l-2.989-1.055C629 24 629 24 626 22l12 1-1-4c2-1 2-1 3-1"/><path fill="#E3CFAE" d="M371.313 580.875 373 582c-2.62 1.746-4.038 2.387-7 3v2l5 1-3 2-4-2v-6c4.43-2.215 4.43-2.215 7.313-1.125"/><path fill="#E9B658" d="m76 561 2 2c-.375 3.625-.375 3.625-1 7l-3 1c-2-2-2-2-2.125-5.125L72 563z"/><path fill="#EAB564" d="m82 557 2 1c-1.312 3.937-2.92 6.227-6 9l-2-5-4 1c2.866-3.29 4.686-4.417 9-5z"/><path fill="#160601" d="M624 113v2l-3 1c-.733 2.015-.733 2.015-1 4l4 1-2 3c-3-1-3-1-5-4-.312-2.562-.312-2.562 0-5 3-2 3-2 7-2"/><path fill="#DCCA88" d="m551 40 3 1 .875 2.25c1.395 3.41 3.44 5.277 6.125 7.75-4.75-.75-4.75-.75-7-3l-3 1z"/><path fill="#2F241C" d="m630 28 9 3-1 2h-2l-1 6-3 1v2h-2l1-3 2-1c.334-2.374.334-2.374 0-5-1.9-1.843-1.9-1.843-4-3z"/><path fill="#E1D3B3" d="M371 570c6.073-.506 9.772.958 15 4l-3 3-3.187-1.875c-2.863-1.64-5.705-2.995-8.813-4.125z"/><path fill="#CAC1B2" d="M304 550v1l-3.812.625c-5.992 1.298-10.96 4.268-16.188 7.375l-1-2q2.653-1.724 5.313-3.437l2.988-1.934c4.678-2.823 7.41-2.527 12.699-1.629"/><path fill="#E4B555" d="M19 531h2l2 2h2l-.437 2.5c-.616 3.827-1.099 7.652-1.563 11.5l-3-1v-4h2c.043-1.666.04-3.334 0-5l-1-1-2 2z"/><path fill="#D8D8D8" d="M277 68h2v2l-3 1zm-5 5 2 1-1 3-7 1v3l-4-2v-2l1.934-.621 2.503-.817 2.497-.808c2.028-.576 2.028-.576 3.066-1.754"/><path fill="#8F7450" d="M607 65c3.12 2.785 3.538 4.843 4 9h3v3h-2l-1 2c-2.358-2.284-3.887-4.008-4.266-7.336.014-2.233.091-4.438.266-6.664"/><path fill="#BFA559" d="m589 46 2 1v4q-2.186.755-4.375 1.5l-2.46.844C582 54 582 54 580 54v-4l1.715-.621 2.222-.816 2.215-.81c1.831-.607 1.831-.607 2.848-1.753"/><path fill="#776043" d="M627 9h4v4c-2.187 1.703-2.187 1.703-5 3.25l-2.812 1.578L621 19c1.503-3.957 3.017-6.93 6-10"/><path fill="#E6BB7D" d="M58 551c3.188-.398 3.188-.398 7-.375l3.813-.023L72 551l2 3H56z"/><path fill="#9C9C9C" d="M208 235c2.938.813 2.938.813 6 2 1 3 1 3 0 6l-9-3z"/><path fill="#E2E2E2" d="M382 35h16v2l-3.375.938c-3.42.885-3.42.885-5.625 2.062l-1-2c-3.03-.658-3.03-.658-6-1z"/><path fill="#866940" d="m613 19 8 1 1 7-5 2 1-2.875c1.102-2.896 1.102-2.896 1-5.125l-7 2z"/><path fill="#B1A164" d="M581 67h1l.297 2.125C583.3 75.488 584.827 80.394 588 86h-3c-3.915-4.216-4.129-8.18-4.062-13.75l.027-2.984z"/><path fill="#5E4A27" d="M611 29c0 3.196-.547 4.417-2 7.188l-1.125 2.167L607 40l-6-3z"/><path fill="#281809" d="M527 18h2c.227 2.804.34 4.462-1.187 6.875C526 26 526 26 523.438 25.875 521 25 521 25 519 22h2l1-2v2c1.985-.267 1.985-.267 4-1z"/><path fill="#ECBC6E" d="M104 597c3.14.336 4.051 1.052 6.313 3.375L112 603l-1 3h-3c-4-5.143-4-5.143-4-9"/><path fill="#E2B470" d="M95 595c6.055-.195 6.055-.195 8 0l2 2-2 3-3.312-.562c-3.624-.696-3.624-.696-6.688.562z"/><path fill="#1B0E03" d="M72 567c0 3.196-.547 4.417-2 7.188l-1.125 2.167L68 578l-2-1c-.625-3.062-.625-3.062-1-6z"/><path fill="#9E9E9E" d="m348 431 1 3 3 1-9 6-1-5 1.875-.812c2.425-1.144 2.425-1.144 4.125-4.188"/><path fill="#BFBFBF" d="M587.688 606.75 590 607l1 3h-2v-2l-3 1-.184 2.117-.254 2.758c-.08.905-.162 1.81-.246 2.742C585 619 585 619 584 621c-2.473-3.71-2.385-5.61-2-10 1.551-3.184 2.122-3.918 5.688-4.25"/><path fill="#CEC4A0" d="m345 583 2 3-9 8-1-2-3-1 2.125-1.187c3.236-2.04 5.978-4.32 8.875-6.813"/><path fill="#EEBE68" d="M61 580h2q-.212 2.438-.437 4.875l-.247 2.742C62 590 62 590 61 592h-2a280 280 0 0 1-.125-4.312l-.07-2.426C59 583 59 583 61 580"/><path fill="#EDBF6C" d="M37 528c2.938 2.5 2.938 2.5 5 5-3.313 0-5.815-.283-9-1l-2.25-.437L29 531l-1-2c3.139-1.57 5.539-1.352 9-1"/><path fill="#332117" d="m620 40 2 1-1 4h-2v6h-3v-9z"/><path fill="#2A1106" d="M612 18c2.063.438 2.063.438 4 1h-3l-.516 1.758C610.921 25.796 609.24 29.82 606 34l-2 1a228 228 0 0 1 4.563-10.75l1.316-2.922C611 19 611 19 612 18"/><path fill="#DBD2B2" d="m326 585 2.688 1.813A188 188 0 0 0 337 592l-1 3c-4.427-1.391-6.994-3.479-10-7z"/><path fill="#EAD7BD" d="M235 570c4.379.505 6.817 3.178 10 6l-1 3c-3.82-1.556-6.26-3.956-9-7z"/><path fill="#BA994F" d="M582 13c2.042 1.692 2.918 2.637 3.512 5.262l.176 2.425.199 2.45L586 25c-2.697-1.888-4.132-3.198-6-6 .54-4.54.54-4.54 2-6"/><path fill="#C8B26A" d="M563 6c-1 3-1 3-2.848 4.168l-2.215 1.02-2.222 1.042L554 13V7c2.957-1.478 5.742-1.06 9-1"/><path fill="#D6B262" d="M78 623c1.945.777 1.945.777 4.125 1.938l2.195 1.152L86 627v1c-9.41.369-9.41.369-14-2z"/><path fill="#F6BF63" d="m2 610 3 1v4l2 2c-3.75 3-3.75 3-6 3q-.04-2.22-.062-4.437l-.036-2.497C1 611 1 611 2 610"/><path fill="#231913" d="m332 593 2.875.5c2.927.553 2.927.553 5.125.5 0 3 0 3-1.687 4.813C336 600 336 600 333.25 599.188L331 598z"/><path fill="#150C04" d="M610 8h2c2.174 2.818 3.087 4.22 2.688 7.813L614 18l-3 1q-.54-2.466-1.062-4.937l-.598-2.778L609 9z"/><path fill="#EABC69" d="m23 633 1 2-2 2-1 2h-5v-2H5v-1l2.922-.148 3.828-.227c1.253-.07 2.506-.14 3.797-.21 3.063-.368 4.873-.812 7.453-2.415"/><path fill="#E0CCAC" d="M325 593c6.007 3.41 6.007 3.41 8 6 .688 2.688.688 2.688 1 5-7.685-5.094-7.685-5.094-9-8.875z"/><path fill="#1C1C1C" d="M251 151c2 1 2 1 2.633 2.848l.492 2.214.508 2.223L255 160h-6z"/><path fill="#C7B670" d="M525 15c2.125.375 2.125.375 4 1v2h-2l-1 4h-4c.75-4.75.75-4.75 3-7"/><path fill="#EABF6D" d="M10 605c7.385-.492 7.385-.492 10.5 2l1.5 2c-3.61 0-6.539-1.011-10-2H9z"/><path fill="#E7DAC1" d="M296.813 569.75c3.44.075 6.076.695 9.187 2.25v2q-2.625-.214-5.25-.437l-2.953-.247c-2.362-.267-4.516-.67-6.797-1.316 2-2 2-2 5.813-2.25"/><path fill="#999" d="m278 434 6 3-2 5-5-2z"/><path fill="#9E9E9E" d="m269 341 5 1a962 962 0 0 1-2.937 4l-1.653 2.25L268 350h-1c-.201-3.625.142-5.865 2-9"/><path fill="#977D4A" d="m635 72 2 1q.079 2.438.125 4.875l.07 2.742C637 83 637 83 635 85h-2z"/><path fill="#F7C05E" d="m69 617 4.395 3.71c1.47 1.182 3.035 2.244 4.605 3.29l-7 1v-2l-3-1z"/><path fill="#292118" d="M317 123c-.75 4.75-.75 4.75-3 7l-3 1-2-1c1.232-3.697 3.794-7 8-7"/><path fill="#9C824B" d="M610 86v4l-7 1-1-4c2.928-.976 4.956-1.082 8-1"/><path fill="#210E05" d="M606 44c2.5.188 2.5.188 5 1 2 3 2 3 1.625 5.688L612 53l-2-2v-2l-1-2-3 1-2-2z"/><path fill="#280F04" d="m623 29-14 7v-2c1.426-1.254 1.426-1.254 3.313-2.562l1.863-1.317c3.51-2.157 4.718-2.148 8.824-1.121"/><path fill="#56432B" d="M599 20h3l1 6c-3.283 1.642-6.425.519-10 0v-2h8v-2l-3-1z"/><path fill="#EDDBB7" d="M341 600c-1.812 2-1.812 2-4 4h-3l-2-5c3.779-1.05 5.65-1.11 9 1"/><path fill="#DDD1B5" d="M245 577c3.912 1.156 6.875 2.355 10 5-7.385.37-7.385.37-10.5-1.5L243 579z"/><path fill="#DEB75E" d="M38 531c5.748 2.446 5.748 2.446 6.938 5.063C45 538 45 538 44 540h-2a132 132 0 0 1-3-5l-2-2z"/><path fill="#949494" d="m400 446 2 1-2 2 2 3-6 3v-3l-2-2z"/><path fill="#9D8B66" d="M342.25 126.313 344 127l-1 3 1 2c-1.75.75-1.75.75-4 1-2.25-1.937-2.25-1.937-4-4 3.446-3.077 3.446-3.077 6.25-2.687"/><path fill="#6D523A" d="M626.063 18.938 629 19c0 4 0 4-1 7-2.437-.75-2.437-.75-5-2-.875-2.062-.875-2.062-1-4 1-1 1-1 4.063-1.062"/><path fill="#8B8B8B" d="m479 605 4 1-1 2-3 1 .5 3.313C480 616 480 616 480 619c-2.82-3.189-3.822-5.731-4-10 1.438-2.375 1.438-2.375 3-4"/><path fill="#453323" d="M271 580h16l-4 2-1 1c-2 .04-4 .043-6 0v-2h-5z"/><path fill="#8D8D8D" d="M331 254h3l1 5-5 1c-.625-1.875-.625-1.875-1-4z"/><path fill="#1D1005" d="m606 24 1 2c-1.187 3.063-1.187 3.063-3 6-2.187.875-2.187.875-4 1l-1-4c3.75-2 3.75-2 6-2z"/><path fill="#CEC88B" d="M529 6c4.914.434 7.527 2.606 11 6 .875 2.313.875 2.313 1 4l-2 1-1.172-1.645-1.578-2.168-1.547-2.144C532.975 8.97 531.215 7.526 529 6"/><path fill="#E9BA6C" d="m33 598 2 1-2.25 1.75c-2.417 1.977-4.582 4.01-6.75 6.25l-3 3c1.276-4.987 3.086-7.659 7-11z"/><path fill="#9A9A9A" d="m261 415 4 5-3 3-3-1c-.875-1.875-.875-1.875-1-4 1.438-1.75 1.438-1.75 3-3"/><path fill="#2F210F" d="m322 127 3 3-1.437 1.813c-1.728 2.19-1.728 2.19-2.563 5.187l-3-1c.75-4.75.75-4.75 3-7z"/><path fill="#574C34" d="m288 127 3 1h-2v3h2v-2l5-1v3c-2.25 1.125-2.25 1.125-5 2-2.71-.929-3.964-1.964-6-4h3z"/><path fill="#D1D1D1" d="M205 111c-3.493 3.493-7.55 4.92-12.437 5.188L190 116c2.235-2.235 4.024-3.002 6.938-4.187l2.652-1.106C202 110 202 110 205 111"/><path fill="#B1884C" d="m596 89 4 1-1 2 1.75-.687C603 91 603 91 605.25 92.437L607 94h-3l-1 2-7-4z"/><path fill="#250C03" d="M588 77c1.737 3.225 2.89 6.513 4 10-3.571-1.88-5.547-3.17-7-7z"/><path fill="#AE8232" d="m0 632 1 2h2l1 5h6v1H0z"/><path fill="#1F0400" d="m111 614 1 4h16v1h-20z"/><path fill="#CFA45C" d="m82 592 1 2 2 1c-.812 3.438-.812 3.438-2 7l-3 1c-1.136-3.41-.867-4.003.438-7.187l.87-2.168z"/><path fill="#EBD7B3" d="M313 586c2.438.75 2.438.75 5 2 .813 2.125.813 2.125 1 4-3.688-.498-5.605-1.1-8-4h2z"/><path fill="#F2DBC1" d="M423.625 554.875 426 555v3l-1.812.438c-1.75.45-3.475.99-5.188 1.562l-1 2c1.09-6.91 1.09-6.91 5.625-7.125"/><path fill="#D4AD6A" d="M96 544c-1.555 3.817-4.036 6.192-7 9v-2l-2-1a483 483 0 0 1 3.375-3l1.898-1.687C94 544 94 544 96 544"/><path fill="#D7D7D7" d="m292 169 1 3c-1.904 1.904-3.334 2.935-6.047 3.2-1.985-.011-3.97-.1-5.953-.2 2.095-2.095 3.32-2.612 6.063-3.562 2.705-.835 2.705-.835 4.937-2.438"/><path fill="#D8D8D8" d="M324 146h10l-3 3c-1.176 2.1-1.176 2.1-2 4h-1v-5z"/><path fill="#D5D5D5" d="M290 146h10l-3 3c-1.176 2.1-1.176 2.1-2 4l-.812-1.812c-1.232-2.516-1.232-2.516-4.188-5.188"/><path fill="#938358" d="m589 27 2 3-3 2c-.577 1.964-.577 1.964-.687 4.125L587 40l-2-1c-.333-4.245-.439-6.355 2-9.937z"/><path fill="#CEBD7B" d="M540 19c3 1 3 1 4.188 3.063 1.048 3.792.945 7.008.812 10.937-2.571-2.571-2.801-4.605-3.625-8.125-.26-1.096-.52-2.191-.79-3.32z"/><path fill="#A58E57" d="M592 23h5l-4 1v2l5 1c-3.228 2.152-4.284 2.2-8 2z"/><path fill="#2D1909" d="m45 603 2 4-1.496 1.242-1.941 1.633-1.934 1.617c-1.737 1.43-1.737 1.43-2.629 3.508l-3-1 1.46-1.39 1.915-1.86 1.898-1.828c1.7-1.892 2.712-3.604 3.727-5.922"/><path fill="#111" d="m539 608 4 1-2 5h-3l-1-2c.938-2.125.938-2.125 2-4"/><path fill="#323232" d="M528 607h4v6h-4z"/><path fill="#DCB677" d="M20 583c1.952 1.952 2.848 3.532 4 6h1l1 7c-3-1-3-1-3.95-2.707-.243-.695-.486-1.39-.738-2.106-.25-.687-.502-1.374-.761-2.082C20 587 20 587 20 583"/><path fill="#EBD6B3" d="m279 583 4 1 1 4h-3l-2 2v-3h-2v-2h2z"/><path fill="#DBB264" d="m47 572 1 2c-5.687.914-10.313.914-16 0v-1c5.07-.712 9.882-1.107 15-1"/><path fill="#E6D2B3" d="m334 570 3 1-1 5-1-2-2.375 1.438c-1.514.901-3.049 1.774-4.625 2.562 1.443-3.366 3.333-5.51 6-8"/><path fill="#D9C9A8" d="m291 570 2 1c-1.251 3.754-2.565 4.24-6 6h-2l-1-3c5.273-3.223 5.273-3.223 7-4"/><path fill="#DBC9AA" d="M401 566c2.343.256 4.678.593 7 1l1 2-1 2-7-2z"/><path fill="#939393" d="m369 255 5 1-1 4-5-1z"/><path fill="#949494" d="m427 255 5 1-1 4-5-1z"/><path fill="#929292" d="m350 254 4 1-1 5-4-1z"/><path fill="#949494" d="m427 236 5 1-1 4-5-1z"/><path fill="#959595" d="m330 236 5 1-1 4-5-1zM369 236l5 1-1 4-5-1z"/><path fill="#D8D8D8" d="m249 149 2 1c-.75 6.625-.75 6.625-3 10h-2z"/><path fill="#C4A35A" d="m590 56 2 2c-.033 2.729-.564 5.297-1 8h-2c-1.158-4.054-.837-6.218 1-10"/><path fill="#9E7033" d="m619 21 1 3-2 2a93 93 0 0 1-4-1l-3 1 1-3c2.433-1.185 4.28-2 7-2"/><path fill="#D6CB87" d="M528 16c3.875.875 3.875.875 5 2 .25 2.375.25 2.375 0 5-1.5 1.813-1.5 1.813-3 3l-2-1 1.125-1.687c1.17-2.37 1.17-2.37 0-5.063z"/><path fill="#E0BE61" d="M15 623c6.055-.195 6.055-.195 8 0l2 2-10 1z"/><path fill="#171717" d="M528 615h4v7h-3z"/><path fill="#C8A875" d="M39 583v2a125 125 0 0 1-6 4l-3 2c.79-5.534 3.473-8 9-8"/><path fill="#F5DFBD" d="m285 575 1 3 2 2h-9v-2c3.462-3 3.462-3 6-3"/><path fill="#E7BE72" d="M44 538h1q-.172 2.22-.375 4.438c-.07.823-.14 1.647-.21 2.496L44 547l-2 1-2-2 2-6h2z"/><path fill="#929292" d="M440 449c1.938.813 1.938.813 4 2l1 3-2 2h-3v-2l-3-1 3-1z"/><path fill="#979797" d="m354 317 4 2-2 5-6-3 3-1z"/><path fill="#AA9771" d="M298 126c2.468 1.152 4.048 2.048 6 4-1.812 1.563-1.812 1.563-4 3l-3-1 1-3z"/><path fill="#4A3C21" d="M304 125h2c.845 3.378 1.108 5.675 0 9h-2l-1-2-2-1 1-3h2z"/><path fill="#8F6B45" d="m620 70 3 1c.125 5.75.125 5.75-1 8-2.062.625-2.062.625-4 1l1-2.187c1.006-2.83 1.17-4.842 1-7.813"/><path fill="#AA7F4B" d="M610 60q2.514.428 5 1l-1.375 1.25c-1.685 1.814-2.618 3.503-3.625 5.75l-2-2c.556-4.556.556-4.556 2-6"/><path fill="#080300" d="M599 50c3.106 0 4.353.54 7 2l-1 3-8-2z"/><path fill="#4D4636" d="M604 43c2 2 2 2 2 4h3l-1 4-4-1c-1.125-4.75-1.125-4.75 0-7"/><path fill="#CCB17D" d="m563 24 2 1-1 4h2v2l3 1-2 2c-2.562-2.187-2.562-2.187-5-5 .188-2.812.188-2.812 1-5"/><path fill="#BDA366" d="M560 5c9.41-.369 9.41-.369 14 2-3.674 1.176-7.17 1.074-11 1V6z"/><path fill="#110803" d="m343 588 2 1c-1.25 3.653-1.671 4.78-5 7v-2l-2-1z"/><path fill="#E4B968" d="M21 569q2.19.676 4.375 1.375l2.46.773C30 572 30 572 32 574h-8v-2l-3-1z"/><path fill="#352211" d="M42 560v4c-4.332.263-7.88-.708-12-2v-1q2.438-.251 4.875-.5l2.742-.281C40 560 40 560 42 560"/><path fill="#F9F9F9" d="M306 159h1l.148 2.773.227 3.602c.07 1.183.14 2.367.21 3.586.117 3.145.117 3.145 2.415 5.039h-6z"/><path fill="#977143" d="M620 125c6.625-.25 6.625-.25 10 2-2.957 1.478-5.742 1.06-9 1z"/><path fill="#DAAC58" d="m58 588 1 4h2l1-2-1 7-4-1z"/><path fill="#F4D9BD" d="m306 583 5 1v3l-8 1 2-1c.652-2.025.652-2.025 1-4"/><path fill="#E2D6AC" d="m339 582-3 6h-2l-2-4c3-2 3-2 7-2"/><path fill="#2B1C0C" d="M65 580h1v9l-2-2-2 3c.75-7.75.75-7.75 3-10"/><path fill="#CABDA2" d="M264 580v2q-2.187.079-4.375.125l-2.46.07C255 582 255 582 253 580c7.429-1.286 7.429-1.286 11 0"/><path fill="#FBE0BB" d="M337 577c2 2 2 2 3 5l-6 1c.375-2.437.375-2.437 1-5zm-5 6 2 1Z"/><path fill="#CCBAA8" d="m232 565 5 5-4 1-4-5z"/><path fill="#A2A2A2" d="m210 257 4 1-1 3-7 1 2-1c1.134-2.017 1.134-2.017 2-4"/><path fill="#9A9A9A" d="M311 255h4v5l-5-1z"/><path fill="#9B9B9B" d="M349 236h5l-1 5-4-1z"/><path fill="#9E9E9E" d="M408 236h4v5l-5-1zM388 236l5 1-1 4h-4z"/><path fill="#9C9C9C" d="M311 236h4v5l-5-1z"/><path fill="#977434" d="M632 83h3l1 3c-1.437 2.188-1.437 2.188-3 4l-3-2z"/><path fill="#211402" d="m555 49 8 4-3 4c-5-5.75-5-5.75-5-8"/><path fill="#C9AC66" d="m578 33-1 2h-9v-2c3.695-.95 6.305-.95 10 0"/><path fill="#291403" d="M72 618c4.833.414 6.827 2.464 10 6-3.37 0-4.067-.498-6.687-2.437l-1.887-1.372L72 619z"/><path fill="#2D1C12" d="m53 602 2 1c-3.75 6.875-3.75 6.875-6 8v-2h-2c1.442-2.884 3.706-4.765 6-7"/><path fill="#D8CDA2" d="m343 593 3 4-5 3-3-3z"/><path fill="#CDC2A5" d="m320 580 6 4-1 4-6-5z"/><path fill="#949494" d="m345 456 2 1-2.5 1.25L342 460v4l-4-2v-3a136 136 0 0 1 7-3"/><path fill="#A6A6A6" d="M204 235c2.625.375 2.625.375 5 1l-1 3-5 1-1-3z"/><path fill="#544830" d="M352 127v2l3 1-3.812.563-2.145.316C347 131 347 131 344 130c2.633-2.633 4.305-3 8-3"/><path fill="#130704" d="M640 79c.313 2.25.313 2.25 0 5-2.5 2.313-2.5 2.313-5 4a295 295 0 0 1 .875-3.937l.492-2.215C637.066 79.808 637.702 79 640 79"/><path fill="#B19A4F" d="m595 50 2 2-4 8c-3-3.75-3-3.75-3-6h4z"/><path fill="#B19F5F" d="m567.188 50.875 3.292.617L573 52v1c-10.558 1.517-10.558 1.517-15-1 3.755-2.504 4.869-1.96 9.188-1.125"/><path fill="#211003" d="m591 50 1 2c-.937 2.625-.937 2.625-2 5l-3-1c-.687-2.062-.687-2.062-1-4z"/><path fill="#D1D1D1" d="M194 35q2.44.676 4.875 1.375l2.742.773C204 38 204 38 206 40c-4.21 1.403-6.096-.118-10-2l-3-2z"/><path fill="#E8BA57" d="M566 23h4v3h-2l-1 2-3 1v-4h2z"/><path fill="#1C0D06" d="m545 11 2 3-2 4h-2l-3-6 4 1z"/><path fill="#F6B65D" d="M10 637h6v2l3 1h-9z"/><path fill="#F5BB4B" d="M28 634v3l-7 2-1-3c5.75-2 5.75-2 8-2"/><path fill="#AEAEAE" d="m572 617 1 2h7v2h-9z"/><path fill="#271109" d="M13 617v3H7l-1-3c2.667-1.333 4.167-.671 7 0"/><path fill="#21170E" d="m327 577 3 4-1 2h-2l-1 2-3-3 1.438-1.375c1.652-1.558 1.652-1.558 2.562-3.625"/><path fill="#DFB566" d="m70 563 3 1-1 4-4 1c.875-4.875.875-4.875 2-6"/><path fill="#C3BAAD" d="M313 555c3.483 3.019 4.792 5.57 6 10h-2l-5-9z"/><path fill="#A0A0A0" d="m408 255 4 1-1 4-4-1zM389 255l4 1-1 4-4-1z"/><path fill="#A17D4C" d="M631.375 88.188 633 89l-1 3-3-1c-2.19 1.372-2.19 1.372-4 3l-2-1c5.415-5.046 5.415-5.046 8.375-4.812"/><path fill="#BCA15B" d="m572 22 1 3a91 91 0 0 1-4 4h-2l-1 2v-5h4v-3z"/><path fill="#AFAFAF" d="m547 617 1 2h7v2h-9z"/><path fill="#290E06" d="m89 595 4 2-1.375 1.25c-1.685 1.814-2.618 3.503-3.625 5.75-.098-6.152-.098-6.152 0-8z"/><path fill="#D5C4AD" d="m302 587 2 2-9 6 2-4h2v-3z"/><path fill="#E0AB72" d="M84 587h3l-1 6-3 1z"/><path fill="#EEDEB1" d="M364 583v4l-6 1c.313-1.937.313-1.937 1-4 3-1 3-1 5-1"/><path fill="#C7B29C" d="m364 582 1 2 3 1h-2v2l5 1-3 2-4-2z"/><path fill="#251A11" d="M352 581c2.468 1.152 4.048 2.048 6 4l-6 3 .563-1.812c.658-2.352.658-2.352-.563-5.188"/><path fill="#1B0E0D" d="M331 582c.625 1.875.625 1.875 1 4l-2 2-3-2v-3c2-1 2-1 4-1"/><path fill="#E6D3B8" d="m282 577-3 1v2h-7v-2q1.935-.543 3.875-1.062l2.18-.598C280 576 280 576 282 577"/><path fill="#B17529" d="m620 72 1 3-4 4-1-5z"/><path fill="#9F7642" d="M616 70h4v3l-6 2c.875-3.875.875-3.875 2-5"/><path fill="#866E4E" d="M631 64h3l3 9c-3-1-3-1-3.95-2.848l-.737-2.215-.762-2.222z"/><path fill="#C4B68A" d="m557 54 7 5-4 1c-2.25-1.437-2.25-1.437-4-3z"/><path fill="#8A6E42" d="m610 26 1 2h2l1 3-3 3-2-1 1-2-2 1z"/><path fill="#DAC06A" d="m553 8 2 1-2 6h-3c.375-2.937.375-2.937 1-6z"/><path fill="#1A0D03" d="M613 0h2v2l3 1-1 7c-2.952-2.952-3.087-5.955-4-10"/><path fill="#2B1207" d="m20 627 4 1v5l-4 2v-3h3l-1.5-1.375C20 629 20 629 20 627"/><path fill="#E6D2B7" d="M369 589h6l-1 5c-2.5-1.375-2.5-1.375-5-3z"/><path fill="#E0B061" d="m26 555 5 2-4 4-3-2v-2h2z"/><path fill="#C3B5A6" d="m378 552 9 5-2 2-8-5z"/><path fill="#2B1B09" d="m26 534 2 4c-2 2-2 2-4 3l-1 2c.498-3.735.875-5.812 3-9"/><path fill="#FDBE56" d="M21 535c2 3 2 3 1.813 5.125L22 542l-3 1c.875-6.875.875-6.875 2-8"/><path fill="#4A3B21" d="M334 126h2v2l2 1v2h-2v2h-2c-1.125-4.75-1.125-4.75 0-7"/><path fill="#825F37" d="m624 113 1 3h-2l1 4h-4l1-5h3z"/><path fill="#301D0A" d="m585 25 3 4c-2.403 2.764-3.163 3.04-7 4z"/><path fill="#8F6C47" d="m613 19 7 1-1 3v-2l-7 2z"/><path fill="#A07246" d="m611 0 3 1-1 5-3-1z"/><path fill="#FBBF54" d="M87 618h7l1 3c-4.554.37-4.554.37-6.812-1.5z"/><path fill="#D9AD6B" d="M45 615h6l-1 4-5-2z"/><path fill="#D8B561" d="m107 612 1 2 3 1-3 3-3-3z"/><path fill="#CEBE9F" d="M275 583h2c-.812 2.938-.812 2.938-2 6l-3 1c.75-4.75.75-4.75 3-7"/><path fill="#DCB25D" d="M68 577c1.563 1.688 1.563 1.688 3 4-.312 2.75-.312 2.75-1 5l-2-1c-.95-3.284-1.101-4.697 0-8"/><path fill="#D7CCB1" d="M395 578c7.429-.286 7.429-.286 11 2-1 1-1 1-3.562 1.063L400 581v-2h-5z"/><path fill="#F1DCB8" d="m314 576 3 2 3 1v3c-2.437-.75-2.437-.75-5-2-.812-2.125-.812-2.125-1-4"/><path fill="#DFD6B8" d="m465 558 9 1v2c-2.812.188-2.812.188-6 0z"/><path fill="#B5AC9E" d="M304 550v1l-10 1v-2c3.694-1.231 6.206-.644 10 0"/><path fill="#A7A7A7" d="M359 421h4c-1.75 3.875-1.75 3.875-4 5l-2-2z"/><path fill="#1F0B04" d="M624 113v2l-3 1-2 3-2-4c3-2 3-2 7-2"/><path fill="#F1F1F1" d="M273 87h3l-1 6h-2a88 88 0 0 1-1-5z"/><path fill="#C8BA77" d="m553 32 4 1-2 4-3-1z"/><path fill="#0C0A03" d="M626 26c2.063.438 2.063.438 4 1v3h-5c0-3 0-3 1-4"/><path fill="#DAB453" d="M19 608c2.063.438 2.063.438 4 1-.613 2.962-1.254 4.38-3 7l-2-7z"/><path fill="#1C120D" d="M346 597c-.687 2.438-.687 2.438-2 5-2.625.813-2.625.813-5 1 1.184-3.55 3.006-6 7-6"/><path fill="#E2BA6E" d="M57 597h3c-.564 3.27-1.5 4.826-4 7z"/><path fill="#E7B268" d="m26 579 3 1-3 6-2-4z"/><path fill="#DFDAAD" d="M354 581c-5.75 4-5.75 4-8 4 .813-1.937.813-1.937 2-4 3-1 3-1 6 0"/><path fill="#D6C5A6" d="m302 581 4 1-2 4-5-2 3-1z"/><path fill="#EEDBC6" d="M379 579v2l-7 1-1-2c2.928-.976 4.956-1.082 8-1"/><path fill="#2A1806" d="M65 575h2c.81 2.915 1.218 4.461.063 7.313L66 584c-2.092-4.43-2.092-4.43-1.625-7.312z"/><path fill="#F1DCC3" d="m431 573 2 1-5 5-3-1z"/><path fill="#5C4F3D" d="M319 566h1v8l3 1-4 2z"/><path fill="#FAC356" d="m76 561 2 2c-.375 2.125-.375 2.125-1 4l-5-3z"/><path fill="#E9BE6E" d="M58 551c3.125-.187 3.125-.187 6 0v2l-8 1z"/><path fill="#A4A4A4" d="M368 441c1 3 1 3 .063 5.188L367 448l-2-2v-3z"/><path fill="#A7A7A7" d="m359 348 3 2c-.375 1.938-.375 1.938-1 4l-2 1c-.934-3.01-1.044-3.867 0-7"/><path fill="#A07347" d="M621 99c3 .313 3 .313 6 1l1 2c-2.875.125-2.875.125-6 0l-2-2z"/><path fill="#AF9266" d="M589 80h3l3 6c-1.875-.187-1.875-.187-4-1-1.25-2.562-1.25-2.562-2-5"/><path fill="#8C6F43" d="M608 74h6v3h-2l-1 2z"/><path fill="#846132" d="m619.688 60.938 2.449.027L624 61v1q-2.405.505-4.812 1l-2.708.563C614 64 614 64 611 64c1.804-3.608 5.086-3.115 8.688-3.062"/><path fill="#8D684D" d="m627 24 8 1c-2 2-2 2-4.625 2.125L628 27z"/><path fill="#E2D170" d="m550 10 1 2 2 1h-3l1 3-4-1c1.875-3.875 1.875-3.875 3-5"/><path fill="#986332" d="m619 4 3 1v5h-3z"/></svg>